<svg width="653" height="66" viewBox="0 0 653 66" fill="none" xmlns="http://www.w3.org/2000/svg">
<g clip-path="url(#clip0_175_67)">
<path d="M647.644 36.3617C646.032 35.8047 646.814 35.1151 647.573 34.7438C648.995 34.0542 649.516 33.3382 649.895 32.569C650.488 32.2375 650.63 31.8794 650.535 31.5214C651.649 30.5533 650.559 29.5455 650.938 28.5642C651.317 27.5696 649.042 26.7342 649.421 25.7529C646.838 25.8987 646.127 26.2966 646.909 27.0524C647.122 27.2514 648.544 27.7685 646.103 27.6094C646.032 27.5696 645.937 27.5431 645.842 27.5033C645.25 27.2779 644.492 27.079 644.468 26.7474C644.468 26.7209 644.468 26.6944 644.468 26.6546C644.515 26.3894 643.78 26.2568 643.52 26.0579C643.567 26.0181 643.638 25.9783 643.686 25.9385C644.586 25.302 645.629 24.6787 646.98 24.135C647.099 23.777 646.316 23.4985 646.056 23.1802C645.416 23.0609 645.06 23.0609 645.037 23.3659C645.013 23.8698 644.539 24.3339 643.117 24.6257C642.975 24.2411 643.069 23.83 642.121 23.525C640.984 23.3261 641.055 23.0476 641.671 22.7294C641.671 22.7294 641.671 22.6763 641.671 22.6498C641.695 22.6498 641.742 22.663 641.79 22.6763C642.406 22.305 641.884 21.8409 642.548 21.4696C641.979 21.443 641.576 21.3767 641.221 21.1911C640.368 20.7535 639.467 20.3026 638.4 19.9313C637.547 19.6395 636.647 19.1091 635.059 19.6395C634.182 19.3345 637.002 19.003 634.869 18.7378C634.348 18.8969 633.826 19.0561 633.305 19.2152C633.186 19.2152 633.091 19.2152 632.973 19.2152C632.949 19.2152 632.902 19.2152 632.878 19.2152C630.769 18.8439 629.205 18.2869 627.759 17.7167C627.925 17.3056 630.081 17.5443 629.821 17.0006C629.916 17.0006 630.01 17.0006 630.105 16.9741C629.133 16.6956 628.304 16.3641 627.071 16.1784C626.076 15.8336 625.247 15.4093 623.611 15.3562C622.829 14.786 621.075 14.6136 619.63 14.3086C617.686 14.0832 616.359 13.4864 614.297 13.314C613.017 13.1019 611.998 12.704 610.386 12.6908C608.206 12.2399 606.002 11.8156 603.537 11.5503C603.252 11.6432 603.015 11.7625 602.684 11.8156C601.949 11.9216 601.214 12.0808 600.385 12.0012C600.053 11.9747 600.076 11.8156 600.242 11.7227C600.74 11.4045 601.641 11.431 602.541 11.4575C601.356 11.0464 599.626 10.9934 598.157 10.7679C596.782 10.5027 595.407 10.2242 593.701 10.264C594.294 10.8342 595.597 10.9005 597.043 10.8873C597.232 10.8873 597.398 10.8873 597.588 10.8873C597.209 11.0464 596.64 11.2188 597.541 11.3647C598.536 11.5238 598.157 11.7095 597.73 11.8951C597.517 11.8951 597.327 11.8819 597.185 11.8553C596.332 11.7227 596.071 11.2984 595.052 11.2453C594.933 11.2453 594.815 11.2453 594.673 11.2453C594.673 11.3514 594.696 11.4442 594.72 11.5503C593.417 11.7758 592.184 11.6697 591.023 11.4575C590.051 11.2851 589.482 11.3116 589.459 11.6697C589.459 11.6962 589.459 11.7227 589.459 11.7492C589.34 11.789 589.293 11.8288 589.34 11.8819C589.245 11.9084 589.127 11.9349 589.032 11.9614C588.866 12.0012 588.676 12.0542 588.487 12.094C585.927 12.1869 584.742 11.4708 582.988 11.0995C583.154 11.0464 583.296 10.9934 583.462 10.9403C583.462 10.9005 583.391 10.874 583.368 10.8342C582.988 10.5027 581.993 10.5027 581.637 10.7281C580.429 11.5105 578.177 11.4177 576.186 11.5769C576.139 11.5636 576.091 11.5503 576.044 11.5371C575.926 11.4973 575.783 11.4575 575.665 11.4177C575.973 11.3382 576.542 11.2586 576.542 11.179C576.376 10.4364 577.987 10.1314 579.575 9.81314C579.812 9.81314 580.049 9.81314 580.286 9.8264C580.903 9.8264 581.519 9.85292 582.135 9.94575C582.846 10.0651 583.107 9.89271 582.988 9.66727C581.495 9.54792 582.799 9.07052 582.04 8.85835C581.353 8.72574 580.713 8.75226 580.073 8.88487C579.599 8.75226 579.125 8.63291 578.651 8.5003C578.509 8.47378 578.367 8.434 578.224 8.40747C577.94 8.8053 577.134 8.83183 576.305 8.83183C575.736 8.83183 575.143 8.81856 574.717 8.91139C574.432 8.47378 573.247 8.30139 572.323 8.04943H572.299C571.802 7.99638 571.636 8.16878 571.28 8.20856C571.209 8.20856 571.162 8.20856 571.091 8.20856C570.237 8.16878 569.005 7.83725 568.863 8.38095C568.863 8.42074 568.863 8.47378 568.863 8.52682C568.175 8.47378 567.227 8.52682 567.773 8.10247C568.033 7.90356 567.773 7.63834 567.346 7.43942C565.782 7.30681 564.289 7.04159 562.582 7.12116C560.852 6.67028 559.785 7.12116 558.6 7.42616C557.534 7.01507 557.131 6.33876 554.808 6.44485C554.453 6.3918 554.097 6.35202 553.718 6.29898C551.656 6.51115 551.111 6.96203 552.628 7.35986C553.481 7.58529 553.078 7.89029 553.671 8.08921C553.742 8.11573 553.837 8.12899 553.931 8.15552C554.002 8.16878 554.05 8.1953 554.145 8.20856C553.457 8.54008 553.552 8.75226 554.95 8.68596C556.515 8.61965 557.321 8.85835 557.7 9.30922C557.7 9.38879 557.7 9.46835 557.7 9.54792C557.676 9.8264 557.415 10.0784 556.42 10.2242C555.448 10.3701 555.187 10.0916 554.69 9.94575C555.045 9.48162 553.22 9.32248 553.244 8.88487C553.244 8.83183 552.557 8.8053 552.462 8.92465C552.154 9.22966 551.538 9.17661 550.921 9.15009C550.827 9.15009 550.755 9.15009 550.661 9.15009C550.518 9.15009 550.376 9.15009 550.234 9.15009C550.068 9.16335 549.879 9.18987 549.713 9.20313C548.599 9.044 547.817 8.75226 546.94 8.48704C546.94 8.434 547.034 8.40747 547.153 8.38095C547.603 8.28813 548.599 8.36769 548.314 8.03617C549.76 7.89029 550.637 7.63834 549.499 7.16094C548.859 6.89572 548.859 6.81615 549.902 6.72333C550.353 6.68354 550.21 6.52441 549.831 6.43158C549.831 6.3255 549.807 6.23267 549.784 6.12658C548.077 5.88788 546.3 5.79506 544.475 5.79506C544.119 5.5431 543.55 5.58288 542.934 5.66245C542.46 5.66245 542.01 5.63593 541.536 5.63593C541.228 5.22483 540.256 5.35744 539.45 5.37071C536.156 5.01266 532.719 4.85353 529.306 4.69439C527.292 4.36287 524.851 4.62809 522.907 4.20374C522.196 4.07113 521.959 5.02592 520.893 4.29656C520.774 4.217 519.779 4.36287 519.802 4.49548C519.945 5.18505 518.167 5.56962 517.551 6.12658C517.432 6.06028 517.314 6.02049 517.195 5.98071C516.745 5.8481 516.224 5.87462 515.702 5.91441C515.489 5.94093 515.252 5.95419 515.015 5.98071C514.541 5.87462 514.091 5.75527 513.617 5.64919C513.569 5.39723 513.545 5.15853 513.735 4.94635C513.901 4.73418 514.256 4.54852 514.967 4.40265C515.939 4.827 516.484 4.19048 517.409 4.2833C517.551 4.2833 517.266 4.03134 517.053 3.89873C516.247 3.84569 515.441 3.80591 514.636 3.75286C513.593 3.76612 512.526 3.83243 511.578 3.60699C511.294 3.58047 510.986 3.56721 510.701 3.54069C509.042 3.56721 509.824 3.92526 509.848 4.17722C509.896 4.217 509.896 4.25678 509.919 4.29656C510.133 4.74744 508.616 5.03918 508.758 5.49005C508.758 5.49005 508.474 5.50331 508.308 5.51658C507.17 5.45027 506.032 5.37071 504.895 5.45027C504.705 5.45027 504.515 5.47679 504.326 5.50332C504.326 5.34418 504.326 5.18505 504.302 5.03918C504.302 4.97287 504.35 4.89331 504.421 4.827C504.587 4.64135 504.918 4.48222 505.084 4.29656C505.298 4.05787 505.487 3.85895 505.843 3.75286C506.009 3.72634 506.175 3.68656 506.364 3.6733C506.72 3.66004 507.194 3.68656 507.857 3.81917C508.829 4.00482 508.687 3.64677 508.687 3.46112C507.407 3.38155 506.151 3.16938 504.776 3.30199C503.33 3.24895 501.885 3.18264 500.439 3.1296C499.775 3.06329 499.112 2.99699 498.472 2.93068V3.01025C498.472 3.01025 498.33 3.01025 498.259 3.01025C495.983 2.83785 495.58 3.28873 495.604 3.88547V3.912C496.031 4.30983 495.817 4.68113 495.154 5.02592C495.012 4.95961 494.893 4.89331 494.798 4.827C494.087 4.34961 494.064 3.76612 492.736 3.38156C492.665 3.36829 492.618 3.34177 492.547 3.32851C493.424 3.11634 494.087 2.90416 492.57 2.69198C491.291 2.63894 490.011 2.5859 488.731 2.53285C489.134 2.74503 489.513 2.9572 489.94 3.18264C489.205 3.39482 488.541 3.28873 487.901 3.15612C487.878 3.15612 487.854 3.15612 487.83 3.16938C487.83 3.16938 487.83 3.15612 487.83 3.14286C487.617 3.05003 487.712 2.83785 487.119 2.87764C486.479 2.91742 486.313 3.11634 486.147 3.28873C484.773 3.75286 483.635 3.71308 482.735 3.1296C482.948 3.01025 483.043 2.90416 482.995 2.78481C482.995 2.75829 482.972 2.71851 482.948 2.69198C482.853 2.57263 482.663 2.4135 482.332 2.20133C481.668 2.1748 481.028 2.1748 480.933 2.46655C480.815 2.81133 479.985 2.63894 479.44 2.66546C478.658 2.51959 479.18 2.05546 478.279 2.02893C476.691 1.98915 475.15 1.69741 473.515 1.89632C473.373 1.8698 473.207 1.8698 473.065 1.89632C471.785 1.81676 470.552 1.59132 469.202 1.73719C469.818 1.97589 469.865 2.44002 471.24 2.37372C471.335 2.37372 471.429 2.37372 471.524 2.36046C471.714 2.61242 471.809 2.86438 471.335 3.11633C470.292 3.07655 470.695 2.57263 469.415 2.57263C469.628 2.91742 470.742 3.16938 470.15 3.79265C469.273 2.98372 466.002 2.73177 468.017 1.76371C467.898 1.76371 467.78 1.73719 467.661 1.72393C466.642 1.39241 465.409 1.57806 464.248 1.5648C463.442 1.31284 462.328 1.35262 461.475 1.40567C459.532 1.55154 457.707 1.61784 455.929 1.27306C454.815 1.19349 453.607 1.36588 452.564 1.11392C452.611 1.15371 452.564 1.19349 452.493 1.23327C452.398 1.23327 452.327 1.2598 452.232 1.27306C451.071 1.44545 450.691 1.71067 451.497 2.1085C451.568 2.02893 451.71 2.00241 451.876 1.98915C452.374 1.94937 453.133 2.08198 453.441 1.92285C453.512 1.88306 453.559 1.83002 453.559 1.76371C455.526 1.81676 453.559 2.33394 454.412 2.51959C454.318 2.54611 454.223 2.55937 454.152 2.5859C452.824 2.86438 452.374 2.45329 451.71 2.20133C451.639 2.1748 451.568 2.14828 451.497 2.12176C451.094 2.18807 450.691 2.25437 450.288 2.32068C450.265 2.32068 450.217 2.32068 450.194 2.33394C449.483 1.92285 448.772 1.49849 448.037 1.0874C447.113 0.941531 446.141 0.901748 445.145 0.901748L445.24 0.954792C445.24 0.954792 445.122 0.954792 445.051 0.954792C444.245 0.941531 443.463 0.915009 443.155 1.28632C442.894 1.61784 443.083 1.84328 443.866 2.00241C443.96 2.01567 444.055 2.04219 444.15 2.05546C444.292 2.14828 444.434 2.25437 444.577 2.3472C444.411 2.37372 444.221 2.40024 444.055 2.4135C443.368 2.50633 442.657 2.59916 441.97 2.69198C441.946 2.69198 441.922 2.69198 441.898 2.69198C441.258 2.66546 440.808 2.57263 440.761 2.33394C440.879 2.29415 440.974 2.25437 441.021 2.21459C441.021 2.21459 441.069 2.18807 441.093 2.18807C441.14 2.08198 440.927 2.00241 440.595 1.89632C440.026 1.72393 439.315 1.57806 440.713 1.36588C440.998 1.3261 441.116 1.27306 441.164 1.22001C441.093 1.14045 440.974 1.06088 440.856 0.994575C440.666 0.915009 440.429 0.835443 440.31 0.769138C440.002 0.769138 439.694 0.755877 439.386 0.742616C436.305 0.517179 433.153 0.583484 430.048 0.610006C427.773 0.610006 425.498 0.610006 423.222 0.610006C421.113 0.596745 422.132 1.39241 420.829 1.57806C420.378 1.57806 419.975 1.5648 419.549 1.52502C418.364 1.40567 417.25 1.16697 415.946 1.22001C415.946 0.888487 416.965 0.331525 414.524 0.490657C414.358 0.477396 414.216 0.477396 414.05 0.490657C414.05 0.490657 414.026 0.503918 414.003 0.517179C413.884 0.583484 413.789 0.676311 413.647 0.676311C410.424 0.742616 408.054 1.23327 406.656 2.18807C406.419 1.96263 407.106 1.60458 405.565 1.59132C404.57 1.57806 405.186 1.28632 405.162 1.10066C405.162 1.07414 405.162 1.04762 405.162 1.03436C405.21 1.03436 405.257 1.03436 405.305 1.04762C405.731 0.875226 405.731 0.66305 405.708 0.437613C404.143 0.238698 402.176 0.238698 401.347 0.583484C400.446 0.941531 399.972 0.901748 399.142 0.742616C398.479 0.596745 397.934 0.716094 397.341 0.755877C397.223 0.503918 396.512 0.384569 395.967 0.384569C393.976 0.384569 392.009 0.172393 389.994 0.305003C388.927 0.702833 387.979 0.450874 387.055 0.238698C387.103 0.26522 387.103 0.305003 387.079 0.331525C387.031 0.331525 386.984 0.331525 386.937 0.331525C386.202 0.305003 385.254 0.185654 384.875 0.371308C385.23 0.185654 386.202 0.305003 386.937 0.331525C386.984 0.305003 387.008 0.26522 387.055 0.238698C383.476 0.0663052 379.85 0.119349 376.248 0.145871C374.944 0.145871 373.19 -0.0265218 372.503 0.251959C371.223 0.79566 370.82 0.225437 370.038 0.172393C368.213 0.0928272 366.246 -0.0530438 364.634 0.185654C363.497 0.358047 362.643 0.358047 361.624 0.291742C357.737 0.0663052 353.827 0.145871 349.94 0.145871C348.613 0.145871 347.285 0.145871 345.958 0.145871C344.678 0.145871 343.399 0.145871 342.095 0.145871C340.602 0.119349 339.109 0.0132612 337.687 0.278481C336.786 0.145871 336.265 0.238698 336.146 0.570223C334.748 0.437613 333.586 -0.0663048 331.88 0.278481C331.833 0.26522 331.762 0.251959 331.714 0.238698C330.695 0.0265222 329.557 0.185654 328.467 0.145871C328.278 0.198915 328.112 0.251959 327.922 0.305003C326.263 0.251959 324.628 0.225437 322.969 0.305003H320.67C320.362 0.596745 321.475 0.649789 321.381 0.782399C321.144 1.04762 321.902 1.43219 320.622 1.57806C319.651 1.69741 318.702 1.48523 318.774 1.2598C319.105 0.119349 316.878 0.291742 314.816 0.344786C314.768 0.344786 314.721 0.344786 314.65 0.344786C314.697 0.318264 314.721 0.278481 314.721 0.251959C312.92 0.291742 311.095 0.344786 309.293 0.384569C306.331 0.0928272 303.416 0.411091 300.477 0.464135C298.367 0.503918 296.258 0.556962 294.172 0.596745C291.328 0.384569 288.65 0.875226 285.759 0.782399C282.535 0.689572 279.241 0.888487 275.994 0.941531C275.046 0.954792 274.193 0.994575 274.098 1.37914C273.031 1.67089 272.937 1.68415 272.7 1.29958C272.51 0.968053 271.823 1.03436 271.23 1.04762C267.628 1.14045 264.025 1.2598 260.423 1.36588C258.242 1.33936 256.062 1.35262 253.905 1.49849C253.763 1.49849 253.621 1.51175 253.478 1.52502C248.146 1.69741 242.813 1.8698 237.457 2.04219C236.129 2.00241 234.779 1.93611 233.546 2.18807C232.669 2.16154 231.816 2.16154 231.105 2.36046C229.944 2.51959 228.83 2.04219 227.668 2.33394C227.36 2.33394 227.028 2.3472 226.72 2.36046C225.535 2.32068 224.374 2.32068 223.26 2.49307C222.336 2.38698 221.625 2.61242 220.819 2.66546C219.989 2.47981 219.112 2.59916 218.259 2.62568C213.756 2.79807 209.253 2.97046 204.75 3.14286C202.593 2.91742 200.578 3.23568 198.588 3.36829C196.881 3.48764 195.104 3.30199 193.492 3.52743C193.326 3.52743 193.16 3.55395 192.994 3.60699C192.07 3.69982 191.098 3.88547 190.221 3.84569C188.183 3.7396 186.405 3.85895 184.699 4.20374C183.822 3.85895 182.969 4.13743 182.116 4.217C180.741 4.34961 179.224 4.68113 178.015 4.60157C174.531 4.34961 171.332 4.78722 168.014 4.86679C165.146 4.85353 162.42 5.17179 159.647 5.33092C158.818 5.33092 158.178 5.59614 157.277 5.51658C155.642 5.64919 153.865 5.51658 152.324 5.79506C150.357 6.23267 147.916 5.92767 145.877 6.25919C140.877 6.64376 135.876 7.04159 130.875 7.42616C129.927 7.39964 129.121 7.51899 128.41 7.7179C124.547 7.8903 120.992 8.434 117.2 8.71248C116.228 8.81857 115.256 8.92465 114.261 9.03074C114.45 9.00422 114.569 9.00422 114.64 9.03074C114.521 9.03074 114.379 9.03074 114.261 9.03074C113.692 9.21639 113.052 9.349 112.199 9.36227C109.947 9.40205 108.193 9.97227 105.918 9.98553C104.757 9.90597 103.975 10.2242 102.932 10.2773C102.055 10.4364 100.846 10.3436 100.135 10.6486C99.7797 10.7016 99.4241 10.7414 99.0686 10.7945C97.3622 10.7149 96.3431 11.2719 94.8499 11.4045C94.447 11.3647 94.0441 11.3116 93.6175 11.4045C93.2857 11.4442 92.9539 11.4973 92.5984 11.5371C91.8873 11.8951 90.489 11.6034 89.6832 11.8686C89.1855 11.9084 88.8774 12.0277 88.7115 12.1736C88.2611 12.1869 87.8345 12.2001 87.3842 12.2266C87.6212 12.3593 88.19 12.4786 87.6449 12.6643C87.1235 12.8366 86.6732 12.6377 86.1992 12.6377C86.0807 12.704 85.9385 12.7703 85.82 12.8234C85.4882 12.8234 85.1564 12.8234 84.8482 12.8234C84.0661 13.1019 84.5401 13.4599 84.3031 13.7782C83.9476 13.8577 83.8528 13.9638 83.8054 14.0832C83.758 14.2556 83.9002 14.4545 83.6395 14.6136C83.5684 14.6534 83.4736 14.6932 83.3551 14.7197L83.4025 14.7595C83.0944 14.7595 82.8574 14.7595 82.6441 14.7197C81.7198 14.6136 81.6013 14.2556 81.5776 14.0169C81.5302 13.261 79.8948 13.3538 78.4728 13.3008C77.6196 13.6986 79.2786 13.7914 79.3734 14.0699C78.3306 14.2954 77.501 13.9108 76.5056 13.9638C75.605 13.9108 74.7755 13.9241 74.0645 14.1362C73.1875 14.0699 72.4054 14.1362 71.6233 14.2556C70.2724 14.428 68.5896 14.4545 68.2104 15.0645C68.0445 15.0512 67.9023 15.0512 67.7364 15.0645C66.8595 14.786 66.3617 15.0778 65.7455 15.1971C63.3044 15.5286 60.8869 15.8734 58.4457 16.1917C55.6728 16.5497 53.2316 17.12 50.4112 17.4515C49.084 17.5973 47.3775 17.7697 47.2116 18.4063C46.7376 18.3665 46.2636 18.3134 45.7896 18.2737C45.1023 18.4195 44.7942 18.7378 43.775 18.7378C41.2628 18.95 39.4141 19.6263 36.8545 19.8119C35.2902 19.9445 34.4133 20.4219 32.9913 20.6341C32.3276 20.7402 31.664 20.833 30.9767 20.9391C29.8391 21.2043 29.0332 21.6022 27.6349 21.7613C26.9239 21.8939 26.1418 21.9867 25.6915 22.2387C26.5684 22.6233 27.2083 23.0476 27.5875 23.5118C27.5401 23.5648 27.469 23.6311 27.3979 23.6841C26.9239 24.0555 26.1655 24.2411 24.7197 24.0024C23.3688 23.7505 23.0133 23.2598 22.2549 22.8752C21.6386 23.1537 20.2403 23.2333 20.3588 23.6841C21.3542 23.777 21.8282 24.0289 22.326 24.2942C23.1792 24.2676 23.3214 24.5063 23.7243 24.6655C23.7243 24.6787 23.7243 24.692 23.7243 24.7185C23.7243 24.7583 23.7243 24.7848 23.7954 24.8246C23.7717 24.8511 23.748 24.8644 23.7006 24.8909C23.5347 25.0235 23.3688 25.1429 23.2029 25.2622C21.8045 25.7396 22.7289 26.3231 22.5867 26.8668C22.5393 27.079 22.8 27.3177 22.7763 27.5564C22.5156 27.5298 22.2786 27.5564 22.0416 27.5829C21.4016 27.6492 20.7617 27.8083 19.9085 27.6227C21.4964 27.1055 21.1646 26.469 20.2403 25.7926C19.79 25.7529 20.0981 26.1109 19.6004 26.1772C19.553 26.1772 19.5293 26.1772 19.4819 26.1772C19.1738 25.8589 19.3634 25.5672 19.79 25.2755C19.9796 25.2755 20.1455 25.2357 20.264 25.2092C20.7143 25.0766 20.9276 24.8246 21.8756 24.8511C22.4208 24.8644 22.0653 24.7185 21.8756 24.5859C21.8282 24.5594 21.7808 24.5328 21.7571 24.5063C21.0935 24.5063 20.5721 24.4135 20.1218 24.2809C20.0033 24.2411 19.8848 24.2013 19.7663 24.1615C19.7663 24.0157 19.7663 23.8698 19.79 23.7107C18.8894 23.6576 18.5339 23.9096 17.965 24.0422C17.1118 24.1881 17.3251 24.44 17.3251 24.6655C17.3251 24.7848 17.4436 24.8909 16.7326 24.8776C13.8411 24.8379 13.7463 26.0446 11.2815 26.217C11.3763 26.2568 11.4711 26.2966 11.5659 26.3496C10.8786 26.8137 9.33801 27.2116 8.41369 27.437C6.11472 27.9674 5.38 28.7101 4.17127 29.4129H4.14757C3.67356 29.7312 3.19954 30.0494 2.72553 30.3677C2.46483 30.3942 2.27522 30.434 2.39372 30.5401C2.18042 30.8053 1.96711 31.0573 1.75381 31.3225C1.13759 31.6673 1.01909 32.0518 0.78208 32.4364C0.236965 32.7414 0.260665 33.0729 0.355468 33.4177C0.355468 34.3195 -0.165946 35.2345 0.900583 36.1097C0.710978 36.3086 1.09019 36.4545 1.30349 36.6136C1.6116 36.6136 2.01451 36.6667 2.20412 36.6136C3.24695 36.3484 3.10474 36.0567 2.79663 35.7649C2.63073 35.619 2.41742 35.4599 2.32262 35.314C3.76836 35.4732 2.65443 34.7969 3.76836 34.8499C3.93426 34.9162 4.10017 34.9825 4.26607 35.0488C5.59331 35.6323 6.35173 36.3219 6.39913 36.9849C6.44653 37.5817 7.29976 37.4756 8.20038 37.5552C8.48479 37.9662 9.66982 38.2447 9.74092 38.6823C8.9588 38.868 8.22408 39.0006 7.70267 38.5895C7.34716 38.311 6.65984 38.1386 5.80662 38.0193C6.06732 37.8204 6.44653 37.5949 5.66441 37.4623C4.76379 37.3165 4.95339 37.6347 4.64528 37.7541C4.45568 37.8204 4.10017 37.8336 3.81576 37.8867C3.48395 37.8867 3.15214 37.8867 2.84404 37.8734C2.18042 38.1784 2.60703 38.4569 3.36545 38.5762C4.64528 38.7752 5.1193 39.0404 4.78749 39.478C4.85859 39.9023 4.97709 40.3267 6.32803 40.5654L7.67897 41.2417C8.72179 41.9445 10.2623 42.528 11.6133 43.1646C11.8503 43.3369 11.9451 43.5359 12.5376 43.6287C13.6041 44.1326 14.884 44.5702 16.543 44.8752C16.6852 44.9283 16.8037 44.9946 16.9459 45.0476C17.6806 45.6974 19.4819 46.0157 21.0224 46.4268C21.4727 46.6655 22.1601 46.8113 22.8948 46.9439C24.0324 47.5672 26.4736 47.6866 27.7534 48.2568C33.8445 49.7155 39.9592 51.1742 46.9035 52.1953C47.899 52.5003 48.9418 52.792 49.9135 53.1103C52.5206 53.959 55.0328 54.8475 59.0857 54.9005C59.9863 55.0995 60.958 55.2188 62.0482 55.2188C64.9871 55.789 68.4237 55.8819 71.5522 56.2797C79.326 57.2477 87.6212 57.6721 95.6083 58.4147C96.5564 58.5075 97.3385 58.481 98.0732 58.2688C98.168 58.5738 98.9027 58.6136 99.6137 58.6799C107.316 59.396 115.209 59.7673 123.101 60.1652C124.452 60.4039 125.969 60.311 127.391 60.3906C139.81 61.1067 152.371 61.4515 164.933 61.73C166.023 61.7565 167.184 61.8493 168.203 61.5973C169.507 61.7432 170.882 61.7963 172.256 61.836C189.439 62.2339 206.598 62.6715 223.663 63.4937C232.669 63.9313 241.675 64.3158 250.8 64.4485C258.503 64.5678 266.182 64.8595 273.861 65.0717C280.473 65.2441 287.086 65.4165 293.698 65.5889C298.77 65.7613 303.866 65.8806 308.962 65.8806C318.11 66.1061 327.258 66.0133 336.431 66.0265C348.21 66.0265 360.013 66.0928 371.792 66.0265C387.695 65.9337 403.574 65.8939 419.478 65.7348C420.947 65.748 422.393 65.8939 423.862 65.748C427.536 65.9072 431.233 65.7083 434.954 65.8011C440.761 65.947 446.662 65.9204 452.493 65.8541C472.235 65.6419 491.859 64.9259 511.531 64.3689C521.817 64.0772 532.056 63.7058 542.318 63.3478C559.383 62.7511 576.091 61.5708 592.54 59.9795C595.313 59.6082 598.536 59.5949 600.906 58.8921C601.546 58.7993 602.21 58.6932 602.873 58.6004C605.291 58.2821 607.85 58.1097 610.173 57.6721C610.908 57.5262 610.86 57.1019 611.879 57.1947C614.297 57.4069 615.743 56.8234 617.496 56.5051C618.658 56.041 620.009 55.6829 621.976 55.6564C622.331 55.6564 622.687 55.5371 623.019 55.4708C631.29 53.7468 638.045 51.5322 642.69 48.7077C645.108 47.2357 647.738 45.8168 650.203 44.358C651.625 43.5093 653.45 42.7137 653.332 41.6661C653.095 39.7432 652.289 37.8867 647.975 36.4147L647.644 36.3617ZM556.041 7.86377C555.733 7.85051 555.496 7.82399 555.306 7.78421C554.571 7.66486 554.571 7.45268 554.927 7.18746C554.974 7.14768 555.022 7.1079 555.093 7.08137C555.827 7.29355 556.965 7.45268 556.041 7.86377ZM639.111 21.7083C639.111 21.7083 639.111 21.7083 639.088 21.7083H639.111ZM642.216 27.2514C642.785 27.4237 643.212 27.5961 642.856 27.8481C642.809 27.8746 642.761 27.9144 642.667 27.9542C640.652 27.8879 641.363 27.5696 641.908 27.2779C641.956 27.2514 642.003 27.2381 642.027 27.2116C642.074 27.2116 642.098 27.2381 642.145 27.2514C642.145 27.2514 642.169 27.2514 642.193 27.2646L642.216 27.2514ZM625.934 17.9421C625.934 17.9421 625.91 17.9421 625.886 17.9421C625.886 17.9421 625.91 17.9421 625.934 17.9421ZM610.22 15.8071C610.22 15.8071 610.363 15.8469 610.434 15.8602C610.363 15.8469 610.291 15.8336 610.22 15.8071ZM600.076 12.651C600.148 12.7571 600.432 12.8366 600.574 12.9295C600.693 13.009 600.716 13.1019 600.432 13.2477C599.887 13.513 599.365 13.8577 599.721 14.2688C599.911 14.4943 599.034 14.3484 598.654 14.3882C598.607 14.3749 598.56 14.3484 598.512 14.3351C597.517 13.9771 596.806 13.566 596.355 13.1019C596.308 13.0621 596.261 13.0223 596.237 12.9825C597.304 12.6245 598.465 12.3593 600.076 12.651ZM575.973 11.9747C576.115 11.9747 576.234 11.9879 576.352 12.0012C576.234 12.0012 576.091 11.9747 575.973 11.9747ZM582.514 11.5503C582.917 11.5503 583.32 11.5503 583.273 11.7625C583.249 11.9084 583.012 12.0808 582.491 12.1338C581.946 12.1736 581.637 12.1338 581.495 11.9879C581.448 11.9482 581.424 11.8951 581.424 11.8421C581.637 11.7492 581.827 11.6432 582.04 11.5503C582.183 11.5503 582.348 11.5503 582.491 11.5503H582.514ZM568.744 9.62749C568.673 9.29596 570.688 9.08378 569.266 8.67269C569.384 8.67269 569.503 8.67269 569.645 8.65943C570.119 8.65943 570.593 8.65943 570.925 8.52682C570.996 8.5003 571.067 8.46052 571.114 8.42073C572.086 8.739 573.01 9.07052 574.053 9.37553C574.575 9.5214 574.219 9.65401 574.219 9.79988C574.148 10.0386 575.76 10.1049 574.835 10.4231C573.65 10.821 573.698 10.2773 573.129 10.1844C572.347 10.0518 571.565 10.0651 570.782 10.1579C570.664 10.1579 570.545 10.1314 570.427 10.1181C570.356 10.1181 570.308 10.1049 570.237 10.0916C569.692 10.1314 569.076 10.0916 568.721 10.2773C570.024 10.9934 567.204 10.6088 567.227 11.0464C566.422 10.5823 567.251 10.3568 567.796 10.1181C567.275 9.73357 566.73 9.87945 566.398 10.1447C566.113 10.3701 565.876 10.5955 565.071 10.6221C565 10.6221 564.928 10.6221 564.834 10.6221C564.715 10.6088 564.597 10.5823 564.502 10.5558C564.312 10.5027 564.454 10.4497 564.644 10.3966C564.976 10.3038 565.426 10.1844 564.407 9.99879C563.459 9.8264 565 9.61423 565.805 9.48162C565.829 9.48162 565.876 9.48161 565.9 9.46835C566.777 9.69379 567.796 9.65401 568.792 9.64075L568.744 9.62749ZM546.015 9.56118C546.015 9.56118 546.158 9.5877 546.229 9.60096C546.205 9.62749 546.158 9.65401 546.086 9.68053C546.086 9.68053 546.086 9.68053 546.063 9.69379C546.063 9.69379 546.063 9.68053 546.063 9.66727C546.063 9.62749 546.063 9.60096 546.015 9.56118ZM524.069 5.43701C524.282 5.23809 523.832 4.93309 524.874 4.86679C525.491 4.827 525.609 4.95961 525.751 5.07896C525.846 5.17179 525.941 5.27788 526.249 5.3044C526.699 5.52984 526.889 5.80832 527.624 5.96745C527.553 5.99397 527.505 6.02049 527.434 6.04702C527.363 6.07354 527.292 6.11332 527.221 6.13984C527.102 6.13984 526.96 6.13984 526.841 6.12658C526.225 6.0868 525.609 6.02049 525.135 6.25919C524.78 6.25919 524.448 6.27245 524.092 6.28571C523.974 6.28571 523.832 6.28571 523.713 6.28571C523.832 6.00723 523.808 5.70223 524.092 5.43701H524.069ZM520.49 5.56962C520.656 5.41049 520.822 5.21157 521.509 5.17179C522.03 5.25136 522.125 5.39723 522.125 5.55636C522.125 5.79506 521.651 5.88788 521.035 5.86136C520.561 5.86136 520.371 5.68897 520.49 5.55636V5.56962ZM501.15 3.95178C501.15 3.95178 501.174 3.95178 501.197 3.95178C501.197 3.95178 501.174 3.95178 501.15 3.95178ZM487.119 5.59614C487.119 5.59614 487.119 5.58288 487.119 5.56962C487.119 5.56962 487.119 5.56962 487.119 5.58288V5.59614ZM487.072 5.38397C487.072 5.38397 487.119 5.38397 487.167 5.38397C487.167 5.38397 487.143 5.38397 487.119 5.39723C487.119 5.39723 487.096 5.39723 487.072 5.38397ZM349.513 1.0874C349.513 1.0874 349.679 1.0874 349.75 1.07414C349.679 1.07414 349.584 1.07414 349.513 1.0874ZM358.946 1.33936C358.946 1.33936 358.97 1.33936 358.994 1.35262C358.994 1.35262 358.994 1.35262 358.946 1.35262C358.946 1.35262 358.946 1.33936 358.946 1.3261V1.33936ZM348.968 2.57263C349.087 2.63894 349.229 2.69198 349.395 2.75829C349.11 2.75829 348.873 2.71851 348.636 2.67872C348.802 2.6522 348.921 2.61242 348.992 2.55937L348.968 2.57263ZM341.005 2.57263C341.005 2.57263 341.005 2.5859 341.005 2.59916C341.005 2.59916 340.981 2.5859 340.957 2.57263C340.957 2.57263 340.981 2.57263 341.005 2.57263ZM379.542 2.51959C379.187 2.46655 378.76 2.44002 378.357 2.42676C378.76 2.45329 379.187 2.47981 379.542 2.51959ZM376.058 1.81676C376.2 2.09524 376.603 2.22785 377.101 2.30741C376.579 2.22785 376.177 2.09524 376.058 1.81676ZM392.767 1.03436C392.767 1.03436 392.672 1.04762 392.648 1.06088C392.648 1.04762 392.648 1.03436 392.648 1.00784C392.696 1.00784 392.743 1.00784 392.791 1.0211L392.767 1.03436ZM349.632 0.610006C349.608 0.716094 349.584 0.822182 349.561 0.915009C349.49 0.808921 349.561 0.716094 349.632 0.610006ZM334.653 1.89632C334.653 1.89632 334.629 1.93611 334.606 1.94937C334.606 1.94937 334.606 1.93611 334.582 1.92285C334.606 1.92285 334.629 1.90958 334.653 1.89632ZM111.677 14.123C109.639 14.2688 108.075 14.8788 105.776 14.7462C104.212 15.1838 102.126 15.1043 100.348 15.3297C97.5755 15.6612 94.8262 15.9795 92.0532 16.311C91.9584 16.2447 91.8636 16.1917 91.7688 16.1254C91.7214 16.0856 91.6503 16.0458 91.6029 16.0193C92.1718 15.8469 92.8828 15.7806 93.5938 15.701C94.0678 15.648 94.5418 15.5949 94.9684 15.5286C95.2054 15.4888 95.4661 15.4491 95.7031 15.4093C95.7742 15.396 95.869 15.3828 95.9401 15.3695C96.8171 15.4093 97.5518 15.2502 98.3102 15.1573C98.405 15.1573 98.4998 15.1441 98.5946 15.1308C98.8553 15.1043 99.116 15.091 99.3767 15.0645C99.4241 15.0512 99.4715 15.0247 99.5426 15.0115C99.6611 14.9717 99.7797 14.9319 99.8745 14.8921C100.822 14.786 101.747 14.6799 102.695 14.5738C102.719 14.5738 102.766 14.5738 102.79 14.5738C103.121 14.5738 103.453 14.5738 103.761 14.5738C104.259 14.5075 104.733 14.428 105.231 14.3617C105.255 14.3617 105.302 14.3617 105.326 14.3617C108.217 14.0036 111.109 13.6588 114 13.3008C115.991 13.1019 117.958 12.8897 119.949 12.6908C126.609 12.094 133.269 11.4973 139.952 10.9005C141.706 10.7945 143.46 10.7016 145.166 10.516C145.38 10.4895 145.617 10.4762 145.83 10.4364C149.646 10.1977 153.462 9.93249 157.277 9.72031C163.534 9.36227 169.791 9.01748 176.048 8.67269C176.451 8.64617 176.83 8.61965 177.233 8.57987C179.912 8.38095 182.59 8.22182 185.339 8.18204C185.339 8.18204 185.386 8.18204 185.386 8.1953C185.552 8.24834 185.742 8.30139 185.908 8.36769C182.732 8.739 179.461 8.92465 176.119 9.00422C170.763 9.41531 165.43 9.83966 160.05 10.2375C149.93 10.9934 139.739 11.6432 129.69 12.5051C125.305 12.8764 120.85 13.1947 116.489 13.6323C115.019 13.9373 113.336 14.0434 111.654 14.1362L111.677 14.123ZM67.9497 19.3213C67.9734 19.2417 67.9497 19.1489 67.8786 19.0561C67.926 19.1489 67.9734 19.2417 67.9497 19.3213ZM24.459 44.7957C24.6486 44.7957 24.8619 44.7957 25.0515 44.7957C24.8382 44.7957 24.6486 44.7957 24.459 44.7957ZM27.5638 28.7764C24.8145 30.1423 24.8145 31.8529 22.3023 33.2586C19.553 34.8101 17.3014 36.4147 16.4719 38.2049C16.1638 38.8813 16.3771 39.531 16.8274 40.1808C16.6852 40.2206 16.543 40.2604 16.4008 40.3002C16.3534 40.3002 16.3297 40.3267 16.2823 40.3267C16.2586 40.0217 15.9268 39.7565 15.358 39.5045C15.1684 39.3586 14.9788 39.2128 14.7892 39.0669C14.481 38.6293 14.1729 38.2049 13.8411 37.7673C13.7463 37.8336 13.7226 37.9265 13.5804 37.9795C13.5804 37.9795 13.533 37.9928 13.5093 38.006C13.6989 38.2182 13.7463 38.4436 13.8648 38.6691C13.7463 38.4569 13.6989 38.2315 13.5093 38.0193C13.1064 38.1386 12.7035 37.8071 12.3717 37.8204C12.7035 37.8204 13.1064 38.1254 13.5093 38.0193C13.5804 37.9397 13.6752 37.8602 13.8411 37.7806C13.6989 37.6878 13.533 37.5949 13.3908 37.5021C13.8885 36.7595 13.2723 36.0301 13.2723 35.2875C13.2723 35.2743 13.2723 35.2477 13.2723 35.2345C13.8411 33.7095 15.595 32.3038 17.7043 30.9512C17.8939 30.8583 18.0835 30.7788 18.2732 30.686C19.2212 30.2483 20.1929 29.7975 21.1409 29.3599C23.0607 28.7101 24.9804 28.0735 26.9002 27.4237C27.5638 27.1983 28.2511 26.9861 28.9147 26.7607C29.2228 26.7209 29.531 26.6679 29.8391 26.6281C29.8391 26.6148 29.8391 26.5883 29.8391 26.575V26.5485C29.8391 26.522 29.8391 26.4955 29.8391 26.469C31.901 26.1507 33.1572 25.4744 35.3139 25.1959C35.3613 25.2357 35.4324 25.2755 35.4798 25.3152C35.4798 25.3152 35.4798 25.3285 35.5035 25.3418C35.5746 25.3948 35.6457 25.4479 35.7168 25.5009C32.138 26.3629 30.1472 27.6359 27.5638 28.7631V28.7764ZM33.489 22.0133C33.6312 22.2122 33.252 22.305 32.7068 22.358C32.4224 22.3846 32.1143 22.3846 31.8062 22.3846C30.005 22.3846 30.3842 22.1459 31.2611 21.8541C31.3796 21.8409 31.5218 21.8276 31.664 21.8143C32.4461 21.748 33.2757 21.748 33.489 22.0133ZM223.047 2.45329C223.213 2.50633 223.45 2.53285 223.568 2.5859C223.426 2.53285 223.189 2.50633 223.047 2.45329ZM212.239 4.827C212.239 4.827 212.121 4.84027 212.05 4.85353C212.097 4.827 212.121 4.81374 212.168 4.78722C212.168 4.80048 212.215 4.81374 212.263 4.81374L212.239 4.827ZM225.749 3.85895C225.559 3.83243 225.393 3.79265 225.275 3.7396C225.44 3.76612 225.63 3.79265 225.796 3.83243C225.796 3.83243 225.796 3.84569 225.772 3.85895H225.749ZM219.681 5.94093C219.681 5.94093 219.705 5.94093 219.729 5.94093H219.681ZM215.842 5.99397C215.842 5.99397 215.818 5.99397 215.794 5.98071C215.794 5.98071 215.818 5.98071 215.842 5.99397ZM215.771 5.95419C215.771 5.95419 215.771 5.95419 215.747 5.95419H215.771ZM197.592 6.07354C196.241 6.03375 195.483 5.91441 196.146 5.41049C196.431 5.64919 196.952 5.87462 197.592 6.07354ZM195.933 4.54852C195.933 4.54852 196.099 4.61483 196.099 4.68113C196.099 4.62809 196.028 4.58831 195.933 4.54852ZM205.437 7.16094C205.793 7.14768 206.172 7.13442 206.527 7.12116C206.172 7.13442 205.793 7.14768 205.437 7.1742V7.16094ZM233.214 5.33092C233.214 5.33092 233.214 5.33092 233.238 5.33092C233.238 5.33092 233.238 5.33092 233.214 5.33092ZM240.064 2.9572C240.064 2.9572 239.969 2.98373 239.922 2.99699C239.969 2.99699 240.016 2.97046 240.064 2.9572ZM195.08 4.29656C195.08 4.29656 195.08 4.33635 195.127 4.34961C195.104 4.33635 195.08 4.30983 195.08 4.29656ZM95.4424 13.9108C95.4424 13.9108 95.395 13.9373 95.3476 13.9506C95.3476 13.9506 95.3476 13.9241 95.3476 13.9108C95.3713 13.9108 95.395 13.9108 95.4187 13.9108H95.4424ZM101.273 11.1525C101.273 11.1525 101.344 11.2055 101.391 11.2321C101.344 11.2055 101.32 11.179 101.273 11.1525ZM86.7443 15.3297C86.7443 15.3297 86.7206 15.3297 86.6969 15.3297C86.6969 15.3297 86.6969 15.3297 86.6732 15.3297H86.7206C86.7206 15.3297 86.7206 15.3297 86.7443 15.3297ZM85.6541 14.7064C85.7726 14.733 85.8911 14.7462 85.9859 14.7728C85.8911 14.7462 85.7726 14.7197 85.6541 14.7064ZM247.553 4.54852C246.25 4.77396 245.989 4.36287 245.396 4.13743C246.439 4.08439 247.553 3.80591 248.288 4.19048C248.572 4.33635 248.003 4.46896 247.553 4.54852ZM252.507 3.7396C252.127 3.76612 251.796 3.76612 251.63 3.59373C251.63 3.58047 251.582 3.56721 251.582 3.54069C251.559 3.48764 251.535 3.42134 251.535 3.36829C251.559 3.1959 251.843 3.05003 252.53 2.99699C252.625 2.99699 252.696 2.98373 252.791 2.97046C253.052 2.93068 253.289 2.86438 253.549 2.81133H253.692C253.81 2.87764 253.929 2.9572 254.047 3.03677C254.237 3.15612 254.355 3.27547 254.166 3.40808C254.095 3.46112 253.976 3.51417 253.81 3.56721C253.644 3.60699 253.478 3.64678 253.312 3.68656C253.075 3.68656 252.791 3.71308 252.507 3.7396ZM270.495 2.47981C270.495 2.47981 270.472 2.47981 270.448 2.47981C270.448 2.47981 270.472 2.47981 270.495 2.46655C270.495 2.46655 270.495 2.47981 270.495 2.49307V2.47981ZM317.92 2.01567C317.92 2.01567 317.968 2.02893 317.991 2.04219C317.944 2.04219 317.897 2.04219 317.873 2.04219C317.873 2.04219 317.92 2.01567 317.92 2.00241V2.01567ZM259.309 2.46655C259.309 2.46655 259.309 2.46655 259.332 2.46655C259.332 2.46655 259.332 2.46655 259.309 2.46655ZM215.628 3.56721C215.249 3.32851 214.657 3.24895 213.803 3.27547C213.803 3.27547 213.803 3.27547 213.827 3.27547C213.827 3.27547 213.827 3.27547 213.78 3.27547C214.135 3.35503 214.372 3.52743 214.988 3.69982C214.396 3.52743 214.135 3.35503 213.78 3.28873C213.78 3.28873 213.78 3.28873 213.756 3.28873C214.609 3.26221 215.202 3.35503 215.557 3.58047L215.628 3.56721ZM188.728 5.34418C188.373 5.67571 187.282 5.42375 186.88 5.64919C186.808 5.64919 186.737 5.64919 186.642 5.64919C186.311 5.64919 186.003 5.63592 185.813 5.51658C185.813 5.51658 185.789 5.51658 185.789 5.50332C186.477 4.77396 187.543 5.02592 188.728 5.34418ZM164.411 5.95419C164.482 5.72875 164.293 5.38397 165.193 5.38397C166.165 5.38397 165.691 5.70223 165.81 5.91441C165.833 5.91441 165.857 5.91441 165.881 5.92767C165.881 5.92767 165.833 5.94093 165.833 5.95419C165.454 6.10006 165.028 6.21941 164.388 6.11332C164.388 6.06028 164.388 6.00723 164.435 5.95419H164.411ZM145.925 6.31224C145.925 6.31224 145.901 6.31224 145.877 6.31224C145.877 6.31224 145.877 6.31224 145.877 6.29898C145.877 6.29898 145.877 6.29898 145.901 6.29898L145.925 6.31224ZM141.919 7.99638C141.919 7.99638 141.896 7.99638 141.872 8.00964H141.919V7.99638ZM119.38 9.13683C119.38 9.13683 119.593 9.25618 119.712 9.30922C120.304 9.60096 121.11 9.81314 122.248 9.90597C122.248 9.90597 122.082 9.94575 121.987 9.95901C121.039 10.211 121.252 10.821 119.641 10.8608C119.57 10.8608 119.499 10.8608 119.404 10.8608C119.001 10.7149 118.669 10.516 117.863 10.6088C117.863 10.6088 117.863 10.5558 117.863 10.5292C117.863 10.5027 117.863 10.4762 117.863 10.4497C117.863 10.4364 117.863 10.4099 117.863 10.3966C117.863 10.3568 117.887 10.3038 117.863 10.264C117.863 10.264 117.887 10.264 117.911 10.264C119.38 10.1844 118.574 9.81314 118.693 9.57444C118.693 9.53466 118.764 9.49488 118.835 9.45509C118.977 9.34901 119.143 9.24292 119.285 9.13683H119.38ZM99.9693 11.2851C99.7086 11.1525 99.116 11.0995 98.879 10.9536C99.116 11.0862 99.7086 11.1525 99.9693 11.2851ZM75.842 14.8656C75.9842 14.8656 76.1264 14.8656 76.2686 14.8656C76.6004 14.8656 76.9322 14.8656 77.1692 14.9584C77.2166 14.9717 77.2403 14.9849 77.264 14.9982C76.8611 15.1441 77.7381 15.5552 76.5056 15.4756C75.605 15.4225 75.1784 15.1573 75.842 14.8523V14.8656ZM43.6328 19.0295C43.6328 19.0295 43.8224 19.0295 43.9409 19.0295C44.2965 19.0295 44.6283 19.0295 44.9838 19.0295C45.0312 19.0295 45.1023 19.0561 45.1734 19.0561C45.6237 19.1224 46.1688 19.1356 46.6191 19.2019C46.9272 19.2417 47.1879 19.308 47.3301 19.4274C47.4012 19.4804 47.4486 19.5467 47.4486 19.6263C47.259 19.6793 47.0694 19.7324 46.9035 19.7722C46.785 19.7589 46.6428 19.7324 46.5006 19.7191C45.4578 19.613 44.2017 19.6395 43.6328 19.2682C43.5617 19.2285 43.4906 19.1754 43.4432 19.1224C43.4906 19.0826 43.5617 19.0428 43.6328 19.003V19.0295ZM15.0736 26.4822C15.0736 26.4822 15.1684 26.4822 15.1921 26.4955C15.1921 26.7077 15.1447 26.9066 15.1447 27.1187C14.3862 27.1983 15.121 27.742 14.3388 27.8216C14.1255 27.8481 13.7937 27.8216 13.296 27.7553C13.296 27.7553 13.2723 27.742 13.2486 27.7288C12.7746 27.4503 12.2532 27.1718 11.4 26.9994C11.3526 26.9994 11.3289 26.9861 11.2815 26.9729C11.3052 26.8933 11.3289 26.8137 11.3526 26.7209C11.3526 26.7077 11.3526 26.6811 11.3526 26.6679C12.7746 27.0127 13.7226 26.3231 15.0499 26.469L15.0736 26.4822ZM9.45651 27.742C9.45651 27.742 9.36171 27.7818 9.31431 27.8083C9.31431 27.8083 9.29061 27.7951 9.26691 27.7818C9.33801 27.7818 9.38541 27.7553 9.45651 27.742ZM1.4694 31.2562C2.06191 31.2297 2.65443 31.1899 3.31805 31.1633C2.65443 31.2031 2.06191 31.2297 1.4694 31.2562ZM294.291 65.5359C295.191 65.5359 296.116 65.4961 297.016 65.4696C296.4 65.6154 295.334 65.5624 294.291 65.5359ZM303.392 65.6287C303.392 65.6287 303.344 65.6287 303.321 65.6287C303.724 65.6287 304.127 65.6552 304.53 65.6685C304.15 65.6685 303.771 65.6685 303.392 65.6419V65.6287ZM581.163 55.3912C423.507 62.1676 344.252 60.311 344.252 60.311C325.078 59.8602 310.384 59.5286 293.011 59.1706C255.422 58.4014 232.148 58.0567 213.661 57.6456C179.722 56.8632 145.877 54.2242 111.914 53.9855C111.914 53.9855 85.8674 53.7999 49.4632 46.1085C30.953 42.1965 26.9239 39.783 26.9713 37.8071C27.0661 33.2586 48.2782 29.572 60.8158 27.3972C72.7372 25.3285 81.0087 24.6655 88.7589 23.8831C112.72 21.4563 123.172 18.7113 140.071 16.1519C159.624 13.1814 179.272 12.5449 217.809 11.3647C251.89 10.3303 279.762 10.1181 310.834 10.1049C365.985 10.0651 393.573 10.0386 421.113 10.8077C480.27 12.4653 512.763 13.4864 554.737 20.223C587.468 25.4744 613.349 32.1844 630.295 37.091C629.11 38.8017 626.669 41.9048 622.213 44.968C609.083 53.9988 589.553 55.0199 581.163 55.3779V55.3912ZM633.234 31.296C628.612 29.9964 623.611 28.8825 618.373 27.8746C613.799 26.9994 609.059 26.1905 604.769 25.1694C601.048 24.2809 597.209 23.4454 593.393 22.61C590.146 21.8939 586.686 21.2706 583.296 20.6076C583.012 20.5546 582.704 20.5015 582.42 20.4485C580.737 20.1567 579.054 19.865 577.395 19.56C577.253 19.5335 577.111 19.5069 576.968 19.4804C573.295 18.4991 569.147 17.7963 564.739 17.2526C564.597 17.2128 564.431 17.173 564.265 17.1332C563.909 17.0669 563.506 17.0139 563.103 16.9741C562.866 16.9476 562.606 16.921 562.369 16.8945C554.619 15.6745 546.584 14.7064 538.36 13.8975C529.875 13.0621 521.201 12.4919 512.526 11.9482C505.724 11.5238 498.922 11.0995 492.096 10.7149C481.81 10.1314 471.69 9.22966 461.428 8.60639C445.477 7.63834 429.527 6.59072 413.315 6.17963C404.143 5.94093 394.971 5.83484 385.799 5.63593C375.655 5.41049 365.535 5.14527 355.415 4.91983C350.082 4.80048 344.726 4.73418 339.369 4.65461C333.018 4.65461 326.666 4.65461 320.314 4.64135C319.745 4.41591 318.726 4.61483 318.086 4.44243C318.015 4.41591 317.944 4.40265 317.873 4.36287C320.93 4.30983 324.011 4.2833 327.069 4.36287C327.069 4.36287 327.116 4.36287 327.14 4.36287C328.112 4.36287 329.06 4.36287 330.031 4.34961C330.268 4.2833 330.387 4.217 330.458 4.12417C330.671 3.88547 330.553 3.58047 331.477 3.36829C331.193 3.77939 330.956 4.0446 332.164 4.12417C332.378 4.13743 332.615 4.15069 332.923 4.15069C334.843 4.17722 336.786 4.09765 338.706 4.15069C338.777 4.15069 338.848 4.15069 338.943 4.15069C339.535 4.15069 340.152 4.15069 340.744 4.16395C340.768 4.16395 340.815 4.16395 340.839 4.16395C341.147 4.16395 341.455 4.16395 341.763 4.17722C341.763 4.20374 341.763 4.217 341.787 4.24352C341.787 4.25678 341.787 4.2833 341.787 4.29656C344.844 4.27004 347.902 4.27004 350.959 4.29656C356.078 4.34961 361.198 4.30983 366.317 4.30983C372.147 4.30983 378.001 4.30983 383.832 4.30983C388.833 4.33635 393.833 4.36287 398.858 4.38939C404.594 4.41591 410.353 4.4557 416.088 4.48222C416.254 4.48222 416.42 4.48222 416.562 4.48222C418.174 4.62809 419.762 4.48222 421.374 4.48222C422.037 4.60157 422.725 4.65461 423.412 4.65461C424.952 4.66787 426.517 4.50874 428.034 4.60157C428.128 4.60157 428.199 4.60157 428.294 4.61483C428.626 4.61483 428.958 4.61483 429.266 4.61483C429.361 4.61483 429.456 4.61483 429.55 4.61483C430.807 4.66787 432.063 4.70765 433.319 4.72092C433.437 4.72092 433.58 4.72092 433.698 4.72092C435.689 4.7607 437.703 4.7607 439.718 4.74744C440.31 4.74744 440.903 4.74744 441.495 4.74744C441.756 4.74744 442.041 4.77396 442.301 4.77396C442.681 4.81374 443.06 4.85353 443.439 4.88005C443.557 4.88005 443.676 4.88005 443.794 4.89331C446.876 5.05244 449.98 4.80048 453.156 5.02592C456.166 5.25136 459.295 5.38397 462.447 5.37071C462.802 5.37071 463.134 5.37071 463.49 5.37071C467.874 5.52984 472.235 5.70223 476.62 5.86136C477.07 5.88788 477.52 5.90114 477.971 5.92767C480.815 6.06028 483.659 6.19289 486.479 6.3255C487.096 6.45811 487.759 6.51115 488.47 6.45811C489.086 6.47137 489.703 6.48463 490.319 6.49789C491.148 6.55093 491.954 6.60398 492.784 6.65702C493.115 6.6305 493.566 6.61724 493.803 6.56419C493.992 6.51115 494.016 6.43159 493.613 6.27245C493.116 6.06028 492.523 5.88788 491.954 5.68897C491.954 5.68897 491.93 5.68897 491.907 5.68897C491.907 5.68897 491.907 5.67571 491.907 5.66245C491.741 5.49005 490.769 5.42375 491.291 5.18505C491.788 4.97288 492.547 5.02592 493.258 5.0657C494.111 5.38397 494.917 5.14527 495.746 5.03918C495.794 5.05244 495.841 5.07896 495.888 5.10548C496.979 5.5431 497.097 6.0868 497.524 6.60398C497.571 6.67028 497.642 6.73659 497.69 6.80289C497.808 6.82942 497.927 6.84268 498.069 6.82942C500.249 7.02833 502.501 7.02833 504.729 7.20072C507.502 7.4129 510.464 7.7179 513.451 7.49247C513.545 7.49247 513.664 7.49246 513.759 7.4792C514.493 7.89029 515.868 7.82399 516.982 7.86377C520.063 7.96986 523.073 8.10247 526.012 8.42073C526.32 8.47378 526.652 8.51356 526.984 8.54008C528.429 8.67269 529.946 8.64617 531.439 8.71248C532.198 8.76552 532.861 8.93791 533.691 8.88487C533.762 8.88487 533.809 8.88487 533.881 8.87161C535.469 9.03074 537.222 8.93791 538.739 9.20313C539.237 9.24292 539.758 9.26944 540.256 9.30922C542.745 9.48162 545.233 9.65401 547.722 9.81314C547.817 9.81314 547.911 9.8264 548.03 9.83966C549.807 9.94575 551.585 10.0518 553.363 10.1712C553.552 10.211 553.765 10.2375 553.979 10.264C556.112 10.5823 558.529 10.5292 560.757 10.7414C561.065 10.7679 561.35 10.8077 561.634 10.8475C562.203 11.0464 562.961 10.9271 563.625 10.9668C563.791 10.9934 563.933 11.0066 564.099 11.0332C566.303 11.3249 568.815 11.2586 570.948 11.6299C572.584 11.8023 574.195 12.0145 575.949 12.0675C576.257 12.0675 576.565 12.094 576.85 12.094C578.556 12.399 580.381 12.598 582.301 12.704C584.339 12.5847 586.022 12.8632 587.634 13.208C587.705 13.1947 587.752 13.1814 587.823 13.1682C587.894 13.1549 587.942 13.1284 587.989 13.1019C588.439 12.8499 587.16 12.3725 588.771 12.3195C588.961 12.3195 589.103 12.3195 589.222 12.3195C589.696 12.3593 589.601 12.5316 589.577 12.704C589.577 12.7703 589.577 12.8234 589.601 12.8764C589.625 12.8764 589.672 12.8897 589.696 12.903C589.696 12.9295 589.719 12.9427 589.743 12.9693C589.814 12.9958 589.933 13.009 590.075 13.0223C590.241 13.0753 590.407 13.1284 590.573 13.1814C591.876 13.1417 593.203 13.0886 594.507 13.0488C594.625 13.0886 594.744 13.1284 594.839 13.1814C595.028 13.2875 595.076 13.4069 594.815 13.4599C592.232 14.0301 594.554 14.0699 595.573 14.2291C596.284 14.3351 597.043 14.4014 597.801 14.4943C598.038 14.6269 598.394 14.6667 598.868 14.6401C600.076 14.8391 601.262 15.0645 602.66 15.1308C604.888 15.1573 606.239 15.8204 608.253 16.006C608.395 16.006 608.561 16.0326 608.703 16.0458C608.846 16.0723 609.012 16.0989 609.154 16.1386C611.263 16.5365 613.396 16.9343 615.506 17.3321C615.743 17.3321 616.074 17.3321 616.24 17.3056C616.264 17.3056 616.288 17.3056 616.311 17.2923C616.62 17.173 616.217 17.0934 616.003 17.0006C616.027 16.9476 616.074 16.9078 616.098 16.8547C616.193 16.7089 616.311 16.5497 616.406 16.4039C616.406 16.3906 616.43 16.3641 616.454 16.3508C616.762 16.3508 617.094 16.3641 617.402 16.3773C617.852 15.9397 617.52 15.396 618.113 14.9717C618.326 14.8258 618.658 14.6799 619.179 14.5606C619.227 14.5606 619.25 14.5473 619.298 14.5341C619.345 14.5341 619.369 14.5208 619.416 14.5075C621.289 14.8788 619.274 15.2369 619.369 15.5949C619.677 15.5949 619.985 15.5949 620.293 15.5949C620.364 15.5949 620.412 15.6215 620.459 15.6347C621.146 15.7939 621.502 16.0458 621.407 16.2978C621.146 16.9476 622.023 17.0802 623.256 17.0536C623.564 17.0536 623.896 17.0271 624.227 17.0139C624.725 17.2526 625.318 17.478 625.27 17.783C625.223 17.8095 625.199 17.8228 625.152 17.836C623.801 18.5521 622.853 17.7034 621.691 17.6769C620.815 17.5708 620.578 16.9608 620.459 17.0802C619.938 17.5973 618.373 17.3454 617.568 17.5443C617.473 17.5708 617.378 17.5973 617.307 17.6371C618.942 17.9554 620.601 18.2869 622.237 18.6052C623.896 18.6052 624.678 18.9367 625.247 19.3743C625.578 19.4671 625.934 19.5732 626.266 19.6661C626.669 19.7058 627 19.7854 627.309 19.865C627.735 19.9843 628.114 20.1302 628.517 20.2628C628.802 20.3556 629.11 20.4485 629.394 20.5413C629.726 20.6341 630.082 20.7004 630.532 20.7535C630.2 20.3822 630.224 20.0639 631.219 19.8517C632.262 20.2628 633.731 20.3556 635.201 20.4485C635.319 20.4485 635.462 20.4617 635.604 20.475C635.414 20.8596 635.414 21.2839 633.518 20.9391C632.783 20.8065 631.646 20.8993 631.148 21.2574C632.807 21.8143 633.803 22.5172 634.916 23.1935C634.916 23.2067 634.94 23.2333 634.964 23.2465C635.319 23.7505 635.699 24.2544 636.054 24.7583C636.22 25.0102 636.22 25.2887 636.955 25.4611C637.192 25.4346 637.405 25.3948 637.642 25.3683C638.116 25.3152 638.543 25.302 638.851 25.4744C638.922 25.5142 638.969 25.5407 639.017 25.5937C638.709 25.8457 638.329 26.0844 637.452 26.1772C636.765 26.5618 636.955 26.9994 636.955 27.4105C636.955 28.6172 636.22 29.7709 635.272 30.9247C634.869 31.402 634.466 31.5479 633.068 31.1633L633.234 31.296Z" fill="#66CC33" fill-opacity="0.6"/>
<path d="M423.056 0.556964C422.748 0.490659 422.464 0.477398 422.25 0.490659C422.511 0.517181 422.796 0.530442 423.056 0.556964Z" fill="#66CC33" fill-opacity="0.6"/>
<path d="M584.742 9.72031C584.742 9.72031 584.837 9.76009 584.908 9.78662C584.908 9.8264 584.908 9.87944 584.908 9.91923C584.861 9.93249 584.837 9.94575 584.813 9.95901C584.481 10.1049 584.647 10.2375 584.884 10.3834C584.884 10.3834 584.932 10.4099 584.955 10.4231C584.79 10.5425 584.173 10.5955 584.102 10.7414C584.102 10.7812 584.102 10.821 584.15 10.874C584.553 10.8873 584.979 10.9138 585.382 10.9271C586.757 11.4045 588.345 10.8475 589.814 11.0332C590.098 11.0729 590.407 10.8873 590.193 10.821C589.245 10.516 590.715 10.2375 590.241 9.94575C590.217 9.85292 590.193 9.76009 590.17 9.66727C589.387 9.61422 588.558 9.65401 587.871 9.48161C587.61 9.349 587.278 9.30922 586.804 9.33574C585.903 9.20313 585.05 9.03074 584.007 9.01748C583.676 9.20313 583.368 9.40205 583.036 9.5877C583.036 9.5877 583.012 9.60096 582.988 9.61422C583.012 9.61422 583.059 9.61422 583.083 9.61422C583.676 9.60096 584.316 9.54792 584.766 9.72031H584.742ZM588.771 10.4894C588.771 10.4894 588.724 10.4894 588.7 10.5027C588.653 10.5027 588.629 10.5027 588.582 10.5027C588.653 10.5027 588.7 10.5027 588.771 10.5027V10.4894Z" fill="#66CC33" fill-opacity="0.6"/>
<path d="M410.305 0.397827C409.357 0.424349 408.315 0.251956 407.627 0.636525C408.528 0.556959 409.76 0.96805 410.329 0.397827H410.305Z" fill="#66CC33" fill-opacity="0.6"/>
<path d="M23.0134 25.2092V25.2217H23.0342L23.0134 25.2092Z" fill="#66CC33" fill-opacity="0.6"/>
</g>
<defs>
<clipPath id="clip0_175_67">
<rect width="653" height="66" fill="white"/>
</clipPath>
</defs>
</svg>
