<svg width="522" height="66" viewBox="0 0 522 66" fill="none" xmlns="http://www.w3.org/2000/svg">
<g clip-path="url(#clip0_158_25)">
<path d="M517.718 36.3617C516.43 35.8047 517.055 35.1151 517.662 34.7438C518.798 34.0542 519.215 33.3382 519.518 32.569C519.992 32.2375 520.106 31.8794 520.03 31.5214C520.92 30.5533 520.049 29.5455 520.352 28.5642C520.655 27.5696 518.836 26.7342 519.139 25.7529C517.074 25.8987 516.506 26.2966 517.131 27.0524C517.302 27.2514 518.438 27.7685 516.487 27.6094C516.43 27.5696 516.354 27.5431 516.278 27.5033C515.805 27.2779 515.199 27.079 515.18 26.7474C515.18 26.7209 515.18 26.6944 515.18 26.6546C515.217 26.3894 514.63 26.2568 514.422 26.0579C514.46 26.0181 514.516 25.9783 514.554 25.9385C515.274 25.302 516.108 24.6787 517.188 24.135C517.283 23.777 516.657 23.4985 516.449 23.1802C515.937 23.0609 515.653 23.0609 515.634 23.3659C515.615 23.8698 515.236 24.3339 514.1 24.6257C513.986 24.2411 514.062 23.83 513.304 23.525C512.395 23.3261 512.451 23.0476 512.944 22.7294C512.944 22.7294 512.944 22.6763 512.944 22.6498C512.963 22.6498 513.001 22.663 513.039 22.6763C513.531 22.305 513.114 21.8409 513.645 21.4696C513.19 21.443 512.868 21.3767 512.584 21.1911C511.902 20.7535 511.182 20.3026 510.329 19.9313C509.647 19.6395 508.927 19.1091 507.658 19.6395C506.957 19.3345 509.212 19.003 507.506 18.7378C507.09 18.8969 506.673 19.0561 506.256 19.2152C506.161 19.2152 506.086 19.2152 505.991 19.2152C505.972 19.2152 505.934 19.2152 505.915 19.2152C504.229 18.8439 502.978 18.2869 501.823 17.7167C501.955 17.3056 503.679 17.5443 503.471 17.0006C503.547 17.0006 503.622 17.0006 503.698 16.9741C502.921 16.6956 502.258 16.3641 501.273 16.1784C500.477 15.8336 499.814 15.4093 498.507 15.3562C497.882 14.786 496.48 14.6136 495.324 14.3086C493.771 14.0832 492.71 13.4864 491.061 13.314C490.038 13.1019 489.224 12.704 487.935 12.6908C486.192 12.2399 484.43 11.8156 482.46 11.5503C482.232 11.6432 482.043 11.7625 481.778 11.8156C481.19 11.9216 480.603 12.0808 479.94 12.0012C479.675 11.9747 479.694 11.8156 479.826 11.7227C480.224 11.4045 480.944 11.431 481.664 11.4575C480.717 11.0464 479.334 10.9934 478.159 10.7679C477.06 10.5027 475.961 10.2242 474.597 10.264C475.071 10.8342 476.113 10.9005 477.269 10.8873C477.42 10.8873 477.553 10.8873 477.704 10.8873C477.401 11.0464 476.947 11.2188 477.667 11.3647C478.462 11.5238 478.159 11.7095 477.818 11.8951C477.648 11.8951 477.496 11.8819 477.382 11.8553C476.7 11.7227 476.492 11.2984 475.677 11.2453C475.582 11.2453 475.488 11.2453 475.374 11.2453C475.374 11.3514 475.393 11.4442 475.412 11.5503C474.37 11.7758 473.385 11.6697 472.456 11.4575C471.68 11.2851 471.225 11.3116 471.206 11.6697C471.206 11.6962 471.206 11.7227 471.206 11.7492C471.111 11.789 471.073 11.8288 471.111 11.8819C471.035 11.9084 470.941 11.9349 470.865 11.9614C470.732 12.0012 470.581 12.0542 470.429 12.094C468.383 12.1869 467.436 11.4708 466.034 11.0995C466.166 11.0464 466.28 10.9934 466.413 10.9403C466.413 10.9005 466.356 10.874 466.337 10.8342C466.034 10.5027 465.238 10.5027 464.954 10.7281C463.988 11.5105 462.188 11.4177 460.596 11.5769C460.558 11.5636 460.52 11.5503 460.482 11.5371C460.388 11.4973 460.274 11.4575 460.179 11.4177C460.426 11.3382 460.88 11.2586 460.88 11.179C460.748 10.4364 462.036 10.1314 463.305 9.81314C463.495 9.81314 463.684 9.81314 463.874 9.8264C464.366 9.8264 464.859 9.85292 465.352 9.94575C465.92 10.0651 466.128 9.89271 466.034 9.66727C464.84 9.54792 465.882 9.07052 465.276 8.85835C464.726 8.72574 464.215 8.75226 463.703 8.88487C463.324 8.75226 462.945 8.63291 462.567 8.5003C462.453 8.47378 462.339 8.434 462.226 8.40747C461.998 8.8053 461.354 8.83183 460.691 8.83183C460.236 8.83183 459.763 8.81856 459.422 8.91139C459.194 8.47378 458.247 8.30139 457.508 8.04943H457.489C457.091 7.99638 456.959 8.16878 456.674 8.20856C456.617 8.20856 456.58 8.20856 456.523 8.20856C455.841 8.16878 454.856 7.83725 454.742 8.38095C454.742 8.42074 454.742 8.47378 454.742 8.52682C454.192 8.47378 453.435 8.52682 453.87 8.10247C454.079 7.90356 453.87 7.63834 453.529 7.43942C452.279 7.30681 451.085 7.04159 449.721 7.12116C448.338 6.67028 447.486 7.12116 446.538 7.42616C445.686 7.01507 445.364 6.33876 443.507 6.44485C443.223 6.3918 442.939 6.35202 442.635 6.29898C440.987 6.51115 440.551 6.96203 441.764 7.35986C442.446 7.58529 442.124 7.89029 442.597 8.08921C442.654 8.11573 442.73 8.12899 442.806 8.15552C442.863 8.16878 442.901 8.1953 442.976 8.20856C442.427 8.54008 442.503 8.75226 443.621 8.68596C444.871 8.61965 445.515 8.85835 445.818 9.30922C445.818 9.38879 445.818 9.46835 445.818 9.54792C445.799 9.8264 445.591 10.0784 444.795 10.2242C444.018 10.3701 443.81 10.0916 443.412 9.94575C443.696 9.48162 442.237 9.32248 442.256 8.88487C442.256 8.83183 441.707 8.8053 441.631 8.92465C441.385 9.22966 440.892 9.17661 440.4 9.15009C440.324 9.15009 440.267 9.15009 440.191 9.15009C440.078 9.15009 439.964 9.15009 439.85 9.15009C439.718 9.16335 439.566 9.18987 439.433 9.20313C438.543 9.044 437.918 8.75226 437.217 8.48704C437.217 8.434 437.293 8.40747 437.387 8.38095C437.747 8.28813 438.543 8.36769 438.316 8.03617C439.471 7.89029 440.172 7.63834 439.263 7.16094C438.751 6.89572 438.751 6.81615 439.585 6.72333C439.945 6.68354 439.831 6.52441 439.528 6.43158C439.528 6.3255 439.509 6.23267 439.49 6.12658C438.126 5.88788 436.705 5.79506 435.246 5.79506C434.962 5.5431 434.508 5.58288 434.015 5.66245C433.636 5.66245 433.276 5.63593 432.897 5.63593C432.651 5.22483 431.874 5.35744 431.23 5.37071C428.596 5.01266 425.849 4.85353 423.121 4.69439C421.511 4.36287 419.559 4.62809 418.006 4.20374C417.437 4.07113 417.248 5.02592 416.395 4.29656C416.3 4.217 415.505 4.36287 415.524 4.49548C415.637 5.18505 414.216 5.56962 413.724 6.12658C413.629 6.06028 413.534 6.02049 413.44 5.98071C413.08 5.8481 412.663 5.87462 412.246 5.91441C412.075 5.94093 411.886 5.95419 411.697 5.98071C411.318 5.87462 410.958 5.75527 410.579 5.64919C410.541 5.39723 410.522 5.15853 410.673 4.94635C410.806 4.73418 411.09 4.54852 411.659 4.40265C412.435 4.827 412.871 4.19048 413.61 4.2833C413.724 4.2833 413.496 4.03134 413.326 3.89873C412.682 3.84569 412.038 3.80591 411.393 3.75286C410.56 3.76612 409.707 3.83243 408.949 3.60699C408.722 3.58047 408.476 3.56721 408.248 3.54069C406.922 3.56721 407.547 3.92526 407.566 4.17722C407.604 4.217 407.604 4.25678 407.623 4.29656C407.794 4.74744 406.581 5.03918 406.695 5.49005C406.695 5.49005 406.467 5.50331 406.335 5.51658C405.425 5.45027 404.516 5.37071 403.607 5.45027C403.455 5.45027 403.303 5.47679 403.152 5.50332C403.152 5.34418 403.152 5.18505 403.133 5.03918C403.133 4.97287 403.171 4.89331 403.228 4.827C403.36 4.64135 403.626 4.48222 403.758 4.29656C403.929 4.05787 404.08 3.85895 404.364 3.75286C404.497 3.72634 404.63 3.68656 404.781 3.6733C405.065 3.66004 405.444 3.68656 405.975 3.81917C406.752 4.00482 406.638 3.64677 406.638 3.46112C405.615 3.38155 404.611 3.16938 403.512 3.30199C402.356 3.24895 401.2 3.18264 400.045 3.1296C399.514 3.06329 398.984 2.99699 398.472 2.93068V3.01025C398.472 3.01025 398.359 3.01025 398.302 3.01025C396.483 2.83785 396.161 3.28873 396.18 3.88547V3.912C396.521 4.30983 396.35 4.68113 395.82 5.02592C395.706 4.95961 395.611 4.89331 395.536 4.827C394.967 4.34961 394.948 3.76612 393.887 3.38156C393.83 3.36829 393.793 3.34177 393.736 3.32851C394.437 3.11634 394.967 2.90416 393.755 2.69198C392.732 2.63894 391.709 2.5859 390.685 2.53285C391.008 2.74503 391.311 2.9572 391.652 3.18264C391.064 3.39482 390.534 3.28873 390.022 3.15612C390.003 3.15612 389.984 3.15612 389.966 3.16938C389.966 3.16938 389.966 3.15612 389.966 3.14286C389.795 3.05003 389.871 2.83785 389.397 2.87764C388.886 2.91742 388.753 3.11634 388.62 3.28873C387.521 3.75286 386.612 3.71308 385.892 3.1296C386.063 3.01025 386.138 2.90416 386.101 2.78481C386.101 2.75829 386.082 2.71851 386.063 2.69198C385.987 2.57263 385.835 2.4135 385.57 2.20133C385.04 2.1748 384.528 2.1748 384.452 2.46655C384.357 2.81133 383.694 2.63894 383.259 2.66546C382.633 2.51959 383.05 2.05546 382.33 2.02893C381.061 1.98915 379.829 1.69741 378.522 1.89632C378.408 1.8698 378.276 1.8698 378.162 1.89632C377.139 1.81676 376.154 1.59132 375.074 1.73719C375.567 1.97589 375.604 2.44002 376.703 2.37372C376.779 2.37372 376.855 2.37372 376.931 2.36046C377.082 2.61242 377.158 2.86438 376.779 3.11633C375.945 3.07655 376.268 2.57263 375.244 2.57263C375.415 2.91742 376.305 3.16938 375.832 3.79265C375.131 2.98372 372.516 2.73177 374.127 1.76371C374.032 1.76371 373.937 1.73719 373.842 1.72393C373.028 1.39241 372.043 1.57806 371.114 1.5648C370.47 1.31284 369.58 1.35262 368.898 1.40567C367.344 1.55154 365.885 1.61784 364.464 1.27306C363.574 1.19349 362.607 1.36588 361.774 1.11392C361.812 1.15371 361.774 1.19349 361.717 1.23327C361.641 1.23327 361.584 1.2598 361.509 1.27306C360.58 1.44545 360.277 1.71067 360.921 2.1085C360.978 2.02893 361.092 2.00241 361.224 1.98915C361.622 1.94937 362.229 2.08198 362.475 1.92285C362.532 1.88306 362.57 1.83002 362.57 1.76371C364.142 1.81676 362.57 2.33394 363.252 2.51959C363.176 2.54611 363.1 2.55937 363.043 2.5859C361.982 2.86438 361.622 2.45329 361.092 2.20133C361.035 2.1748 360.978 2.14828 360.921 2.12176C360.599 2.18807 360.277 2.25437 359.955 2.32068C359.936 2.32068 359.898 2.32068 359.879 2.33394C359.311 1.92285 358.742 1.49849 358.155 1.0874C357.416 0.941531 356.64 0.901748 355.844 0.901748L355.92 0.954792C355.92 0.954792 355.825 0.954792 355.768 0.954792C355.124 0.941531 354.499 0.915009 354.252 1.28632C354.044 1.61784 354.195 1.84328 354.821 2.00241C354.896 2.01567 354.972 2.04219 355.048 2.05546C355.162 2.14828 355.275 2.25437 355.389 2.3472C355.256 2.37372 355.105 2.40024 354.972 2.4135C354.423 2.50633 353.854 2.59916 353.305 2.69198C353.286 2.69198 353.267 2.69198 353.248 2.69198C352.737 2.66546 352.377 2.57263 352.339 2.33394C352.433 2.29415 352.509 2.25437 352.547 2.21459C352.547 2.21459 352.585 2.18807 352.604 2.18807C352.642 2.08198 352.471 2.00241 352.206 1.89632C351.751 1.72393 351.183 1.57806 352.301 1.36588C352.528 1.3261 352.623 1.27306 352.661 1.22001C352.604 1.14045 352.509 1.06088 352.415 0.994575C352.263 0.915009 352.074 0.835443 351.979 0.769138C351.732 0.769138 351.486 0.755877 351.24 0.742616C348.777 0.517179 346.257 0.583484 343.775 0.610006C341.956 0.610006 340.138 0.610006 338.319 0.610006C336.633 0.596745 337.447 1.39241 336.405 1.57806C336.045 1.57806 335.723 1.5648 335.382 1.52502C334.435 1.40567 333.544 1.16697 332.502 1.22001C332.502 0.888487 333.317 0.331525 331.366 0.490657C331.233 0.477396 331.119 0.477396 330.987 0.490657C330.987 0.490657 330.968 0.503918 330.949 0.517179C330.854 0.583484 330.778 0.676311 330.665 0.676311C328.088 0.742616 326.193 1.23327 325.075 2.18807C324.886 1.96263 325.435 1.60458 324.204 1.59132C323.408 1.57806 323.901 1.28632 323.882 1.10066C323.882 1.07414 323.882 1.04762 323.882 1.03436C323.92 1.03436 323.958 1.03436 323.996 1.04762C324.337 0.875226 324.337 0.66305 324.318 0.437613C323.067 0.238698 321.495 0.238698 320.832 0.583484C320.112 0.941531 319.733 0.901748 319.07 0.742616C318.539 0.596745 318.103 0.716094 317.63 0.755877C317.535 0.503918 316.967 0.384569 316.531 0.384569C314.939 0.384569 313.367 0.172393 311.756 0.305003C310.904 0.702833 310.146 0.450874 309.407 0.238698C309.445 0.26522 309.445 0.305003 309.426 0.331525C309.388 0.331525 309.35 0.331525 309.312 0.331525C308.725 0.305003 307.967 0.185654 307.664 0.371308C307.948 0.185654 308.725 0.305003 309.312 0.331525C309.35 0.305003 309.369 0.26522 309.407 0.238698C306.546 0.0663052 303.648 0.119349 300.768 0.145871C299.726 0.145871 298.324 -0.0265218 297.774 0.251959C296.751 0.79566 296.429 0.225437 295.804 0.172393C294.345 0.0928272 292.773 -0.0530438 291.484 0.185654C290.575 0.358047 289.893 0.358047 289.078 0.291742C285.971 0.0663052 282.845 0.145871 279.738 0.145871C278.677 0.145871 277.616 0.145871 276.555 0.145871C275.532 0.145871 274.509 0.145871 273.467 0.145871C272.273 0.119349 271.079 0.0132612 269.943 0.278481C269.223 0.145871 268.806 0.238698 268.711 0.570223C267.593 0.437613 266.665 -0.0663048 265.301 0.278481C265.263 0.26522 265.206 0.251959 265.168 0.238698C264.354 0.0265222 263.444 0.185654 262.573 0.145871C262.421 0.198915 262.288 0.251959 262.137 0.305003C260.811 0.251959 259.503 0.225437 258.177 0.305003H256.339C256.093 0.596745 256.984 0.649789 256.908 0.782399C256.718 1.04762 257.325 1.43219 256.301 1.57806C255.525 1.69741 254.767 1.48523 254.824 1.2598C255.089 0.119349 253.308 0.291742 251.66 0.344786C251.622 0.344786 251.584 0.344786 251.527 0.344786C251.565 0.318264 251.584 0.278481 251.584 0.251959C250.144 0.291742 248.685 0.344786 247.245 0.384569C244.877 0.0928272 242.547 0.411091 240.197 0.464135C238.511 0.503918 236.825 0.556962 235.158 0.596745C232.884 0.384569 230.743 0.875226 228.432 0.782399C225.855 0.689572 223.222 0.888487 220.626 0.941531C219.868 0.954792 219.186 0.994575 219.11 1.37914C218.258 1.67089 218.182 1.68415 217.993 1.29958C217.841 0.968053 217.292 1.03436 216.818 1.04762C213.938 1.14045 211.058 1.2598 208.179 1.36588C206.436 1.33936 204.693 1.35262 202.969 1.49849C202.855 1.49849 202.741 1.51175 202.627 1.52502C198.365 1.69741 194.102 1.8698 189.82 2.04219C188.759 2.00241 187.679 1.93611 186.694 2.18807C185.993 2.16154 185.311 2.16154 184.742 2.36046C183.814 2.51959 182.924 2.04219 181.995 2.33394C181.749 2.33394 181.484 2.3472 181.237 2.36046C180.29 2.32068 179.362 2.32068 178.471 2.49307C177.732 2.38698 177.164 2.61242 176.52 2.66546C175.857 2.47981 175.156 2.59916 174.474 2.62568C170.874 2.79807 167.274 2.97046 163.675 3.14286C161.95 2.91742 160.34 3.23568 158.749 3.36829C157.384 3.48764 155.963 3.30199 154.675 3.52743C154.543 3.52743 154.41 3.55395 154.277 3.60699C153.538 3.69982 152.762 3.88547 152.061 3.84569C150.431 3.7396 149.01 3.85895 147.646 4.20374C146.945 3.85895 146.263 4.13743 145.581 4.217C144.482 4.34961 143.27 4.68113 142.303 4.60157C139.518 4.34961 136.961 4.78722 134.308 4.86679C132.016 4.85353 129.837 5.17179 127.62 5.33092C126.957 5.33092 126.446 5.59614 125.726 5.51658C124.418 5.64919 122.997 5.51658 121.766 5.79506C120.193 6.23267 118.242 5.92767 116.613 6.25919C112.615 6.64376 108.617 7.04159 104.62 7.42616C103.862 7.39964 103.218 7.51899 102.649 7.7179C99.5613 7.8903 96.7194 8.434 93.688 8.71248C92.9112 8.81857 92.1344 8.92465 91.3387 9.03074C91.4903 9.00422 91.585 9.00422 91.6418 9.03074C91.5471 9.03074 91.4334 9.03074 91.3387 9.03074C90.884 9.21639 90.3725 9.349 89.6904 9.36227C87.8905 9.40205 86.4885 9.97227 84.6697 9.98553C83.7414 9.90597 83.1161 10.2242 82.2825 10.2773C81.5815 10.4364 80.6153 10.3436 80.0469 10.6486C79.7627 10.7016 79.4785 10.7414 79.1943 10.7945C77.8302 10.7149 77.0155 11.2719 75.8219 11.4045C75.4998 11.3647 75.1778 11.3116 74.8367 11.4045C74.5715 11.4442 74.3063 11.4973 74.0221 11.5371C73.4537 11.8951 72.3359 11.6034 71.6917 11.8686C71.2938 11.9084 71.0475 12.0277 70.9149 12.1736C70.5549 12.1869 70.2139 12.2001 69.8539 12.2266C70.0434 12.3593 70.4981 12.4786 70.0623 12.6643C69.6455 12.8366 69.2856 12.6377 68.9066 12.6377C68.8119 12.704 68.6982 12.7703 68.6035 12.8234C68.3383 12.8234 68.073 12.8234 67.8267 12.8234C67.2015 13.1019 67.5804 13.4599 67.391 13.7782C67.1068 13.8577 67.031 13.9638 66.9931 14.0832C66.9552 14.2556 67.0689 14.4545 66.8605 14.6136C66.8036 14.6534 66.7278 14.6932 66.6331 14.7197L66.671 14.7595C66.4247 14.7595 66.2353 14.7595 66.0647 14.7197C65.3258 14.6136 65.2311 14.2556 65.2122 14.0169C65.1743 13.261 63.867 13.3538 62.7302 13.3008C62.0482 13.6986 63.3744 13.7914 63.4502 14.0699C62.6166 14.2954 61.9535 13.9108 61.1577 13.9638C60.4378 13.9108 59.7747 13.9241 59.2063 14.1362C58.5053 14.0699 57.8801 14.1362 57.2549 14.2556C56.1749 14.428 54.8298 14.4545 54.5266 15.0645C54.394 15.0512 54.2803 15.0512 54.1477 15.0645C53.4467 14.786 53.0488 15.0778 52.5562 15.1971C50.6048 15.5286 48.6723 15.8734 46.7209 16.1917C44.5042 16.5497 42.5528 17.12 40.2982 17.4515C39.2372 17.5973 37.8731 17.7697 37.7405 18.4063C37.3616 18.3665 36.9826 18.3134 36.6037 18.2737C36.0543 18.4195 35.808 18.7378 34.9933 18.7378C32.985 18.95 31.5072 19.6263 29.4611 19.8119C28.2106 19.9445 27.5096 20.4219 26.3729 20.6341C25.8424 20.7402 25.3119 20.833 24.7625 20.9391C23.8531 21.2043 23.2089 21.6022 22.0911 21.7613C21.5227 21.8939 20.8975 21.9867 20.5375 22.2387C21.2385 22.6233 21.7501 23.0476 22.0532 23.5118C22.0153 23.5648 21.9585 23.6311 21.9016 23.6841C21.5227 24.0555 20.9164 24.2411 19.7607 24.0024C18.6808 23.7505 18.3966 23.2598 17.7903 22.8752C17.2978 23.1537 16.1799 23.2333 16.2747 23.6841C17.0704 23.777 17.4493 24.0289 17.8472 24.2942C18.5292 24.2676 18.6429 24.5063 18.965 24.6655C18.965 24.6787 18.965 24.692 18.965 24.7185C18.965 24.7583 18.965 24.7848 19.0218 24.8246C19.0029 24.8511 18.9839 24.8644 18.9461 24.8909C18.8134 25.0235 18.6808 25.1429 18.5482 25.2622C17.4304 25.7396 18.1693 26.3231 18.0556 26.8668C18.0177 27.079 18.2261 27.3177 18.2072 27.5564C17.9988 27.5298 17.8093 27.5564 17.6198 27.5829C17.1083 27.6492 16.5967 27.8083 15.9147 27.6227C17.1841 27.1055 16.9188 26.469 16.1799 25.7926C15.82 25.7529 16.0663 26.1109 15.6684 26.1772C15.6305 26.1772 15.6116 26.1772 15.5737 26.1772C15.3274 25.8589 15.4789 25.5672 15.82 25.2755C15.9715 25.2755 16.1042 25.2357 16.1989 25.2092C16.5589 25.0766 16.7294 24.8246 17.4872 24.8511C17.923 24.8644 17.6388 24.7185 17.4872 24.5859C17.4493 24.5594 17.4114 24.5328 17.3925 24.5063C16.862 24.5063 16.4452 24.4135 16.0852 24.2809C15.9905 24.2411 15.8957 24.2013 15.801 24.1615C15.801 24.0157 15.801 23.8698 15.82 23.7107C15.1 23.6576 14.8158 23.9096 14.3611 24.0422C13.6791 24.1881 13.8496 24.44 13.8496 24.6655C13.8496 24.7848 13.9443 24.8909 13.3759 24.8776C11.0645 24.8379 10.9887 26.0446 9.01835 26.217C9.09414 26.2568 9.16992 26.2966 9.2457 26.3496C8.69627 26.8137 7.46478 27.2116 6.72589 27.437C4.88812 27.9674 4.3008 28.7101 3.33455 29.4129H3.31561C2.93669 29.7312 2.55777 30.0494 2.17885 30.3677C1.97044 30.3942 1.81887 30.434 1.9136 30.5401C1.74309 30.8053 1.57258 31.0573 1.40206 31.3225C0.909465 31.6673 0.814735 32.0518 0.625275 32.4364C0.189518 32.7414 0.208464 33.0729 0.284248 33.4177C0.284248 34.3195 -0.132564 35.2345 0.720005 36.1097C0.568437 36.3086 0.871573 36.4545 1.04209 36.6136C1.28839 36.6136 1.61047 36.6667 1.76204 36.6136C2.59566 36.3484 2.48198 36.0567 2.23569 35.7649C2.10306 35.619 1.93255 35.4599 1.85677 35.314C3.01247 35.4732 2.12201 34.7969 3.01247 34.8499C3.14509 34.9162 3.27771 34.9825 3.41034 35.0488C4.47131 35.6323 5.07758 36.3219 5.11548 36.9849C5.15337 37.5817 5.83542 37.4756 6.55537 37.5552C6.78272 37.9662 7.73002 38.2447 7.78686 38.6823C7.16164 38.868 6.57432 39.0006 6.15751 38.5895C5.87332 38.311 5.32388 38.1386 4.64183 38.0193C4.85023 37.8204 5.15337 37.5949 4.52815 37.4623C3.8082 37.3165 3.95977 37.6347 3.71347 37.7541C3.5619 37.8204 3.27771 37.8336 3.05036 37.8867C2.78512 37.8867 2.51988 37.8867 2.27358 37.8734C1.74309 38.1784 2.08412 38.4569 2.69039 38.5762C3.71347 38.7752 4.09239 39.0404 3.82715 39.478C3.88399 39.9023 3.97872 40.3267 5.05864 40.5654L6.13856 41.2417C6.97218 41.9445 8.20367 42.528 9.2836 43.1646C9.47306 43.3369 9.54884 43.5359 10.0225 43.6287C10.8751 44.1326 11.8981 44.5702 13.2244 44.8752C13.338 44.9283 13.4328 44.9946 13.5464 45.0476C14.1338 45.6974 15.5737 46.0157 16.8052 46.4268C17.1651 46.6655 17.7146 46.8113 18.3019 46.9439C19.2113 47.5672 21.1627 47.6866 22.1858 48.2568C27.0549 49.7155 31.943 51.1742 37.4942 52.1953C38.2899 52.5003 39.1235 52.792 39.9003 53.1103C41.9844 53.959 43.9927 54.8475 47.2324 54.9005C47.9524 55.0995 48.7292 55.2188 49.6007 55.2188C51.95 55.789 54.6971 55.8819 57.198 56.2797C63.4123 57.2477 70.0434 57.6721 76.4282 58.4147C77.186 58.5075 77.8113 58.481 78.3986 58.2688C78.4744 58.5738 79.0617 58.6136 79.6301 58.6799C85.7875 59.396 92.0965 59.7673 98.4056 60.1652C99.4855 60.4039 100.698 60.311 101.835 60.3906C111.762 61.1067 121.804 61.4515 131.845 61.73C132.717 61.7565 133.645 61.8493 134.46 61.5973C135.502 61.7432 136.601 61.7963 137.7 61.836C151.435 62.2339 165.152 62.6715 178.793 63.4937C185.993 63.9313 193.192 64.3158 200.487 64.4485C206.644 64.5678 212.783 64.8595 218.921 65.0717C224.207 65.2441 229.493 65.4165 234.779 65.5889C238.833 65.7613 242.907 65.8806 246.98 65.8806C254.293 66.1061 261.606 66.0133 268.938 66.0265C278.355 66.0265 287.79 66.0928 297.206 66.0265C309.919 65.9337 322.612 65.8939 335.325 65.7348C336.5 65.748 337.656 65.8939 338.83 65.748C341.767 65.9072 344.722 65.7083 347.697 65.8011C352.339 65.947 357.056 65.9204 361.717 65.8541C377.499 65.6419 393.186 64.9259 408.911 64.3689C417.134 64.0772 425.319 63.7058 433.522 63.3478C447.163 62.7511 460.52 61.5708 473.669 59.9795C475.886 59.6082 478.462 59.5949 480.357 58.8921C480.868 58.7993 481.399 58.6932 481.929 58.6004C483.862 58.2821 485.908 58.1097 487.765 57.6721C488.352 57.5262 488.314 57.1019 489.129 57.1947C491.061 57.4069 492.217 56.8234 493.619 56.5051C494.547 56.041 495.627 55.6829 497.2 55.6564C497.484 55.6564 497.768 55.5371 498.033 55.4708C504.646 53.7468 510.045 51.5322 513.759 48.7077C515.691 47.2357 517.794 45.8168 519.765 44.358C520.901 43.5093 522.36 42.7137 522.265 41.6661C522.076 39.7432 521.432 37.8867 517.984 36.4147L517.718 36.3617ZM444.492 7.86377C444.246 7.85051 444.056 7.82399 443.905 7.78421C443.317 7.66486 443.317 7.45268 443.602 7.18746C443.64 7.14768 443.677 7.1079 443.734 7.08137C444.322 7.29355 445.231 7.45268 444.492 7.86377ZM510.898 21.7083C510.898 21.7083 510.898 21.7083 510.879 21.7083H510.898ZM513.38 27.2514C513.834 27.4237 514.175 27.5961 513.891 27.8481C513.853 27.8746 513.815 27.9144 513.74 27.9542C512.129 27.8879 512.698 27.5696 513.133 27.2779C513.171 27.2514 513.209 27.2381 513.228 27.2116C513.266 27.2116 513.285 27.2381 513.323 27.2514C513.323 27.2514 513.342 27.2514 513.361 27.2646L513.38 27.2514ZM500.364 17.9421C500.364 17.9421 500.345 17.9421 500.326 17.9421C500.326 17.9421 500.345 17.9421 500.364 17.9421ZM487.803 15.8071C487.803 15.8071 487.916 15.8469 487.973 15.8602C487.916 15.8469 487.859 15.8336 487.803 15.8071ZM479.694 12.651C479.751 12.7571 479.978 12.8366 480.092 12.9295C480.186 13.009 480.205 13.1019 479.978 13.2477C479.542 13.513 479.125 13.8577 479.41 14.2688C479.561 14.4943 478.86 14.3484 478.557 14.3882C478.519 14.3749 478.481 14.3484 478.443 14.3351C477.648 13.9771 477.079 13.566 476.719 13.1019C476.681 13.0621 476.643 13.0223 476.624 12.9825C477.477 12.6245 478.405 12.3593 479.694 12.651ZM460.426 11.9747C460.539 11.9747 460.634 11.9879 460.729 12.0012C460.634 12.0012 460.52 11.9747 460.426 11.9747ZM465.655 11.5503C465.977 11.5503 466.299 11.5503 466.261 11.7625C466.242 11.9084 466.053 12.0808 465.636 12.1338C465.2 12.1736 464.954 12.1338 464.84 11.9879C464.802 11.9482 464.783 11.8951 464.783 11.8421C464.954 11.7492 465.105 11.6432 465.276 11.5503C465.39 11.5503 465.522 11.5503 465.636 11.5503H465.655ZM454.647 9.62749C454.59 9.29596 456.201 9.08378 455.064 8.67269C455.159 8.67269 455.253 8.67269 455.367 8.65943C455.746 8.65943 456.125 8.65943 456.39 8.52682C456.447 8.5003 456.504 8.46052 456.542 8.42073C457.319 8.739 458.057 9.07052 458.891 9.37553C459.308 9.5214 459.024 9.65401 459.024 9.79988C458.967 10.0386 460.255 10.1049 459.516 10.4231C458.569 10.821 458.607 10.2773 458.152 10.1844C457.527 10.0518 456.902 10.0651 456.276 10.1579C456.182 10.1579 456.087 10.1314 455.992 10.1181C455.935 10.1181 455.898 10.1049 455.841 10.0916C455.405 10.1314 454.912 10.0916 454.628 10.2773C455.67 10.9934 453.416 10.6088 453.435 11.0464C452.79 10.5823 453.454 10.3568 453.889 10.1181C453.472 9.73357 453.037 9.87945 452.771 10.1447C452.544 10.3701 452.355 10.5955 451.71 10.6221C451.654 10.6221 451.597 10.6221 451.521 10.6221C451.426 10.6088 451.332 10.5823 451.256 10.5558C451.104 10.5027 451.218 10.4497 451.369 10.3966C451.635 10.3038 451.995 10.1844 451.18 9.99879C450.422 9.8264 451.654 9.61423 452.298 9.48162C452.317 9.48162 452.355 9.48161 452.374 9.46835C453.075 9.69379 453.889 9.65401 454.685 9.64075L454.647 9.62749ZM436.478 9.56118C436.478 9.56118 436.592 9.5877 436.648 9.60096C436.629 9.62749 436.592 9.65401 436.535 9.68053C436.535 9.68053 436.535 9.68053 436.516 9.69379C436.516 9.69379 436.516 9.68053 436.516 9.66727C436.516 9.62749 436.516 9.60096 436.478 9.56118ZM418.934 5.43701C419.104 5.23809 418.744 4.93309 419.578 4.86679C420.071 4.827 420.165 4.95961 420.279 5.07896C420.355 5.17179 420.431 5.27788 420.677 5.3044C421.037 5.52984 421.188 5.80832 421.776 5.96745C421.719 5.99397 421.681 6.02049 421.624 6.04702C421.567 6.07354 421.511 6.11332 421.454 6.13984C421.359 6.13984 421.245 6.13984 421.151 6.12658C420.658 6.0868 420.165 6.02049 419.787 6.25919C419.502 6.25919 419.237 6.27245 418.953 6.28571C418.858 6.28571 418.744 6.28571 418.65 6.28571C418.744 6.00723 418.726 5.70223 418.953 5.43701H418.934ZM416.073 5.56962C416.206 5.41049 416.338 5.21157 416.888 5.17179C417.305 5.25136 417.38 5.39723 417.38 5.55636C417.38 5.79506 417.001 5.88788 416.509 5.86136C416.13 5.86136 415.978 5.68897 416.073 5.55636V5.56962ZM400.613 3.95178C400.613 3.95178 400.632 3.95178 400.651 3.95178C400.651 3.95178 400.632 3.95178 400.613 3.95178ZM389.397 5.59614C389.397 5.59614 389.397 5.58288 389.397 5.56962C389.397 5.56962 389.397 5.56962 389.397 5.58288V5.59614ZM389.359 5.38397C389.359 5.38397 389.397 5.38397 389.435 5.38397C389.435 5.38397 389.416 5.38397 389.397 5.39723C389.397 5.39723 389.378 5.39723 389.359 5.38397ZM279.397 1.0874C279.397 1.0874 279.529 1.0874 279.586 1.07414C279.529 1.07414 279.454 1.07414 279.397 1.0874ZM286.937 1.33936C286.937 1.33936 286.956 1.33936 286.975 1.35262C286.975 1.35262 286.975 1.35262 286.937 1.35262C286.937 1.35262 286.937 1.33936 286.937 1.3261V1.33936ZM278.961 2.57263C279.056 2.63894 279.169 2.69198 279.302 2.75829C279.075 2.75829 278.885 2.71851 278.696 2.67872C278.828 2.6522 278.923 2.61242 278.98 2.55937L278.961 2.57263ZM272.595 2.57263C272.595 2.57263 272.595 2.5859 272.595 2.59916C272.595 2.59916 272.576 2.5859 272.557 2.57263C272.557 2.57263 272.576 2.57263 272.595 2.57263ZM303.401 2.51959C303.117 2.46655 302.776 2.44002 302.454 2.42676C302.776 2.45329 303.117 2.47981 303.401 2.51959ZM300.616 1.81676C300.73 2.09524 301.052 2.22785 301.45 2.30741C301.033 2.22785 300.711 2.09524 300.616 1.81676ZM313.973 1.03436C313.973 1.03436 313.897 1.04762 313.878 1.06088C313.878 1.04762 313.878 1.03436 313.878 1.00784C313.916 1.00784 313.954 1.00784 313.992 1.0211L313.973 1.03436ZM279.491 0.610006C279.472 0.716094 279.454 0.822182 279.435 0.915009C279.378 0.808921 279.435 0.716094 279.491 0.610006ZM267.518 1.89632C267.518 1.89632 267.499 1.93611 267.48 1.94937C267.48 1.94937 267.48 1.93611 267.461 1.92285C267.48 1.92285 267.499 1.90958 267.518 1.89632ZM89.2736 14.123C87.6442 14.2688 86.3938 14.8788 84.556 14.7462C83.3056 15.1838 81.6384 15.1043 80.2174 15.3297C78.0007 15.6612 75.803 15.9795 73.5863 16.311C73.5105 16.2447 73.4347 16.1917 73.359 16.1254C73.3211 16.0856 73.2642 16.0458 73.2263 16.0193C73.681 15.8469 74.2494 15.7806 74.8178 15.701C75.1967 15.648 75.5756 15.5949 75.9167 15.5286C76.1061 15.4888 76.3145 15.4491 76.504 15.4093C76.5608 15.396 76.6366 15.3828 76.6934 15.3695C77.3944 15.4093 77.9818 15.2502 78.588 15.1573C78.6638 15.1573 78.7396 15.1441 78.8154 15.1308C79.0238 15.1043 79.2322 15.091 79.4406 15.0645C79.4785 15.0512 79.5164 15.0247 79.5732 15.0115C79.668 14.9717 79.7627 14.9319 79.8385 14.8921C80.5963 14.786 81.3352 14.6799 82.0931 14.5738C82.112 14.5738 82.1499 14.5738 82.1688 14.5738C82.4341 14.5738 82.6993 14.5738 82.9456 14.5738C83.3435 14.5075 83.7224 14.428 84.1203 14.3617C84.1392 14.3617 84.1771 14.3617 84.1961 14.3617C86.5075 14.0036 88.8189 13.6588 91.1303 13.3008C92.7218 13.1019 94.2943 12.8897 95.8857 12.6908C101.21 12.094 106.533 11.4973 111.876 10.9005C113.278 10.7945 114.68 10.7016 116.044 10.516C116.215 10.4895 116.404 10.4762 116.575 10.4364C119.625 10.1977 122.675 9.93249 125.726 9.72031C130.727 9.36227 135.729 9.01748 140.731 8.67269C141.053 8.64617 141.356 8.61965 141.678 8.57987C143.819 8.38095 145.96 8.22182 148.158 8.18204C148.158 8.18204 148.196 8.18204 148.196 8.1953C148.328 8.24834 148.48 8.30139 148.612 8.36769C146.074 8.739 143.459 8.92465 140.788 9.00422C136.506 9.41531 132.243 9.83966 127.942 10.2375C119.852 10.9934 111.706 11.6432 103.673 12.5051C100.168 12.8764 96.6057 13.1947 93.1196 13.6323C91.945 13.9373 90.5998 14.0434 89.2546 14.1362L89.2736 14.123ZM54.3182 19.3213C54.3372 19.2417 54.3182 19.1489 54.2614 19.0561C54.2993 19.1489 54.3372 19.2417 54.3182 19.3213ZM19.5523 44.7957C19.7039 44.7957 19.8744 44.7957 20.026 44.7957C19.8555 44.7957 19.7039 44.7957 19.5523 44.7957ZM22.0343 28.7764C19.8365 30.1423 19.8365 31.8529 17.8282 33.2586C15.6305 34.8101 13.8306 36.4147 13.1675 38.2049C12.9212 38.8813 13.0917 39.531 13.4517 40.1808C13.338 40.2206 13.2244 40.2604 13.1107 40.3002C13.0728 40.3002 13.0538 40.3267 13.016 40.3267C12.997 40.0217 12.7318 39.7565 12.2771 39.5045C12.1255 39.3586 11.9739 39.2128 11.8224 39.0669C11.5761 38.6293 11.3298 38.2049 11.0645 37.7673C10.9887 37.8336 10.9698 37.9265 10.8561 37.9795C10.8561 37.9795 10.8182 37.9928 10.7993 38.006C10.9508 38.2182 10.9887 38.4436 11.0835 38.6691C10.9887 38.4569 10.9508 38.2315 10.7993 38.0193C10.4772 38.1386 10.1551 37.8071 9.88987 37.8204C10.1551 37.8204 10.4772 38.1254 10.7993 38.0193C10.8561 37.9397 10.9319 37.8602 11.0645 37.7806C10.9508 37.6878 10.8182 37.5949 10.7045 37.5021C11.1024 36.7595 10.6098 36.0301 10.6098 35.2875C10.6098 35.2743 10.6098 35.2477 10.6098 35.2345C11.0645 33.7095 12.4665 32.3038 14.1527 30.9512C14.3043 30.8583 14.4559 30.7788 14.6074 30.686C15.3653 30.2483 16.142 29.7975 16.8999 29.3599C18.4345 28.7101 19.9691 28.0735 21.5038 27.4237C22.0343 27.1983 22.5837 26.9861 23.1142 26.7607C23.3605 26.7209 23.6068 26.6679 23.8531 26.6281C23.8531 26.6148 23.8531 26.5883 23.8531 26.575V26.5485C23.8531 26.522 23.8531 26.4955 23.8531 26.469C25.5014 26.1507 26.5055 25.4744 28.2296 25.1959C28.2675 25.2357 28.3243 25.2755 28.3622 25.3152C28.3622 25.3152 28.3622 25.3285 28.3812 25.3418C28.438 25.3948 28.4948 25.4479 28.5517 25.5009C25.6908 26.3629 24.0994 27.6359 22.0343 28.7631V28.7764ZM26.7708 22.0133C26.8844 22.2122 26.5813 22.305 26.1455 22.358C25.9182 22.3846 25.6719 22.3846 25.4256 22.3846C23.9857 22.3846 24.2888 22.1459 24.9898 21.8541C25.0846 21.8409 25.1982 21.8276 25.3119 21.8143C25.9371 21.748 26.6002 21.748 26.7708 22.0133ZM178.301 2.45329C178.433 2.50633 178.623 2.53285 178.718 2.5859C178.604 2.53285 178.414 2.50633 178.301 2.45329ZM169.661 4.827C169.661 4.827 169.567 4.84027 169.51 4.85353C169.548 4.827 169.567 4.81374 169.605 4.78722C169.605 4.80048 169.642 4.81374 169.68 4.81374L169.661 4.827ZM180.461 3.85895C180.309 3.83243 180.176 3.79265 180.082 3.7396C180.214 3.76612 180.366 3.79265 180.499 3.83243C180.499 3.83243 180.499 3.84569 180.48 3.85895H180.461ZM175.61 5.94093C175.61 5.94093 175.629 5.94093 175.648 5.94093H175.61ZM172.541 5.99397C172.541 5.99397 172.522 5.99397 172.503 5.98071C172.503 5.98071 172.522 5.98071 172.541 5.99397ZM172.484 5.95419C172.484 5.95419 172.484 5.95419 172.465 5.95419H172.484ZM157.953 6.07354C156.873 6.03375 156.267 5.91441 156.797 5.41049C157.024 5.64919 157.441 5.87462 157.953 6.07354ZM156.627 4.54852C156.627 4.54852 156.759 4.61483 156.759 4.68113C156.759 4.62809 156.702 4.58831 156.627 4.54852ZM164.224 7.16094C164.508 7.14768 164.811 7.13442 165.095 7.12116C164.811 7.13442 164.508 7.14768 164.224 7.1742V7.16094ZM186.429 5.33092C186.429 5.33092 186.429 5.33092 186.448 5.33092C186.448 5.33092 186.448 5.33092 186.429 5.33092ZM191.904 2.9572C191.904 2.9572 191.828 2.98373 191.79 2.99699C191.828 2.99699 191.866 2.97046 191.904 2.9572ZM155.945 4.29656C155.945 4.29656 155.945 4.33635 155.982 4.34961C155.963 4.33635 155.945 4.30983 155.945 4.29656ZM76.2956 13.9108C76.2956 13.9108 76.2577 13.9373 76.2198 13.9506C76.2198 13.9506 76.2198 13.9241 76.2198 13.9108C76.2387 13.9108 76.2577 13.9108 76.2766 13.9108H76.2956ZM80.9563 11.1525C80.9563 11.1525 81.0131 11.2055 81.051 11.2321C81.0131 11.2055 80.9942 11.179 80.9563 11.1525ZM69.3424 15.3297C69.3424 15.3297 69.3235 15.3297 69.3045 15.3297C69.3045 15.3297 69.3045 15.3297 69.2856 15.3297H69.3235C69.3235 15.3297 69.3235 15.3297 69.3424 15.3297ZM68.4709 14.7064C68.5656 14.733 68.6603 14.7462 68.7361 14.7728C68.6603 14.7462 68.5656 14.7197 68.4709 14.7064ZM197.891 4.54852C196.849 4.77396 196.641 4.36287 196.167 4.13743C197.001 4.08439 197.891 3.80591 198.478 4.19048C198.706 4.33635 198.251 4.46896 197.891 4.54852ZM201.851 3.7396C201.548 3.76612 201.282 3.76612 201.15 3.59373C201.15 3.58047 201.112 3.56721 201.112 3.54069C201.093 3.48764 201.074 3.42134 201.074 3.36829C201.093 3.1959 201.32 3.05003 201.87 2.99699C201.945 2.99699 202.002 2.98373 202.078 2.97046C202.286 2.93068 202.476 2.86438 202.684 2.81133H202.798C202.893 2.87764 202.987 2.9572 203.082 3.03677C203.234 3.15612 203.328 3.27547 203.177 3.40808C203.12 3.46112 203.025 3.51417 202.893 3.56721C202.76 3.60699 202.627 3.64678 202.495 3.68656C202.305 3.68656 202.078 3.71308 201.851 3.7396ZM216.231 2.47981C216.231 2.47981 216.212 2.47981 216.193 2.47981C216.193 2.47981 216.212 2.47981 216.231 2.46655C216.231 2.46655 216.231 2.47981 216.231 2.49307V2.47981ZM254.142 2.01567C254.142 2.01567 254.18 2.02893 254.198 2.04219C254.161 2.04219 254.123 2.04219 254.104 2.04219C254.104 2.04219 254.142 2.01567 254.142 2.00241V2.01567ZM207.288 2.46655C207.288 2.46655 207.288 2.46655 207.307 2.46655C207.307 2.46655 207.307 2.46655 207.288 2.46655ZM172.371 3.56721C172.068 3.32851 171.594 3.24895 170.912 3.27547C170.912 3.27547 170.912 3.27547 170.931 3.27547C170.931 3.27547 170.931 3.27547 170.893 3.27547C171.177 3.35503 171.367 3.52743 171.859 3.69982C171.386 3.52743 171.177 3.35503 170.893 3.28873C170.893 3.28873 170.893 3.28873 170.874 3.28873C171.556 3.26221 172.03 3.35503 172.314 3.58047L172.371 3.56721ZM150.867 5.34418C150.583 5.67571 149.711 5.42375 149.389 5.64919C149.332 5.64919 149.276 5.64919 149.2 5.64919C148.935 5.64919 148.688 5.63592 148.537 5.51658C148.537 5.51658 148.518 5.51658 148.518 5.50332C149.067 4.77396 149.92 5.02592 150.867 5.34418ZM131.428 5.95419C131.485 5.72875 131.334 5.38397 132.054 5.38397C132.83 5.38397 132.452 5.70223 132.546 5.91441C132.565 5.91441 132.584 5.91441 132.603 5.92767C132.603 5.92767 132.565 5.94093 132.565 5.95419C132.262 6.10006 131.921 6.21941 131.409 6.11332C131.409 6.06028 131.409 6.00723 131.447 5.95419H131.428ZM116.651 6.31224C116.651 6.31224 116.632 6.31224 116.613 6.31224C116.613 6.31224 116.613 6.31224 116.613 6.29898C116.613 6.29898 116.613 6.29898 116.632 6.29898L116.651 6.31224ZM113.449 7.99638C113.449 7.99638 113.43 7.99638 113.411 8.00964H113.449V7.99638ZM95.431 9.13683C95.431 9.13683 95.6015 9.25618 95.6963 9.30922C96.1699 9.60096 96.8141 9.81314 97.7235 9.90597C97.7235 9.90597 97.5909 9.94575 97.5151 9.95901C96.7573 10.211 96.9278 10.821 95.6394 10.8608C95.5826 10.8608 95.5258 10.8608 95.45 10.8608C95.1279 10.7149 94.8627 10.516 94.2185 10.6088C94.2185 10.6088 94.2185 10.5558 94.2185 10.5292C94.2185 10.5027 94.2185 10.4762 94.2185 10.4497C94.2185 10.4364 94.2185 10.4099 94.2185 10.3966C94.2185 10.3568 94.2374 10.3038 94.2185 10.264C94.2185 10.264 94.2374 10.264 94.2564 10.264C95.431 10.1844 94.7869 9.81314 94.8816 9.57444C94.8816 9.53466 94.9384 9.49488 94.9953 9.45509C95.109 9.34901 95.2416 9.24292 95.3553 9.13683H95.431ZM79.9143 11.2851C79.7059 11.1525 79.2322 11.0995 79.0428 10.9536C79.2322 11.0862 79.7059 11.1525 79.9143 11.2851ZM60.6272 14.8656C60.7409 14.8656 60.8546 14.8656 60.9683 14.8656C61.2335 14.8656 61.4988 14.8656 61.6882 14.9584C61.7261 14.9717 61.7451 14.9849 61.764 14.9982C61.4419 15.1441 62.1429 15.5552 61.1577 15.4756C60.4378 15.4225 60.0968 15.1573 60.6272 14.8523V14.8656ZM34.8796 19.0295C34.8796 19.0295 35.0312 19.0295 35.1259 19.0295C35.4101 19.0295 35.6754 19.0295 35.9596 19.0295C35.9974 19.0295 36.0543 19.0561 36.1111 19.0561C36.4711 19.1224 36.9069 19.1356 37.2668 19.2019C37.5131 19.2417 37.7215 19.308 37.8352 19.4274C37.892 19.4804 37.9299 19.5467 37.9299 19.6263C37.7784 19.6793 37.6268 19.7324 37.4942 19.7722C37.3995 19.7589 37.2858 19.7324 37.1721 19.7191C36.3385 19.613 35.3343 19.6395 34.8796 19.2682C34.8228 19.2285 34.766 19.1754 34.7281 19.1224C34.766 19.0826 34.8228 19.0428 34.8796 19.003V19.0295ZM12.0497 26.4822C12.0497 26.4822 12.1255 26.4822 12.1444 26.4955C12.1444 26.7077 12.1065 26.9066 12.1065 27.1187C11.5003 27.1983 12.0876 27.742 11.4624 27.8216C11.2919 27.8481 11.0266 27.8216 10.6288 27.7553C10.6288 27.7553 10.6098 27.742 10.5909 27.7288C10.2119 27.4503 9.79514 27.1718 9.11308 26.9994C9.07519 26.9994 9.05624 26.9861 9.01835 26.9729C9.0373 26.8933 9.05624 26.8137 9.07519 26.7209C9.07519 26.7077 9.07519 26.6811 9.07519 26.6679C10.2119 27.0127 10.9698 26.3231 12.0308 26.469L12.0497 26.4822ZM7.55951 27.742C7.55951 27.742 7.48373 27.7818 7.44583 27.8083C7.44583 27.8083 7.42689 27.7951 7.40794 27.7818C7.46478 27.7818 7.50267 27.7553 7.55951 27.742ZM1.17471 31.2562C1.64836 31.2297 2.12201 31.1899 2.6525 31.1633C2.12201 31.2031 1.64836 31.2297 1.17471 31.2562ZM235.252 65.5359C235.972 65.5359 236.711 65.4961 237.431 65.4696C236.939 65.6154 236.086 65.5624 235.252 65.5359ZM242.528 65.6287C242.528 65.6287 242.49 65.6287 242.471 65.6287C242.793 65.6287 243.115 65.6552 243.437 65.6685C243.134 65.6685 242.831 65.6685 242.528 65.6419V65.6287ZM464.575 55.3912C338.546 62.1676 275.191 60.311 275.191 60.311C259.863 59.8602 248.117 59.5286 234.229 59.1706C204.181 58.4014 185.576 58.0567 170.798 57.6456C143.668 56.8632 116.613 54.2242 89.463 53.9855C89.463 53.9855 68.6414 53.7999 39.5404 46.1085C24.7435 42.1965 21.5227 39.783 21.5606 37.8071C21.6364 33.2586 38.593 29.572 48.6155 27.3972C58.1453 25.3285 64.7575 24.6655 70.9528 23.8831C90.1072 21.4563 98.4624 18.7113 111.971 16.1519C127.601 13.1814 143.308 12.5449 174.114 11.3647C201.358 10.3303 223.639 10.1181 248.477 10.1049C292.564 10.0651 314.617 10.0386 336.633 10.8077C383.922 12.4653 409.897 13.4864 443.45 20.223C469.614 25.4744 490.303 32.1844 503.85 37.091C502.903 38.8017 500.951 41.9048 497.389 44.968C486.893 53.9988 471.282 55.0199 464.575 55.3779V55.3912ZM506.199 31.296C502.505 29.9964 498.507 28.8825 494.32 27.8746C490.663 26.9994 486.874 26.1905 483.445 25.1694C480.471 24.2809 477.401 23.4454 474.351 22.61C471.755 21.8939 468.989 21.2706 466.28 20.6076C466.053 20.5546 465.806 20.5015 465.579 20.4485C464.234 20.1567 462.889 19.865 461.562 19.56C461.449 19.5335 461.335 19.5069 461.221 19.4804C458.285 18.4991 454.969 17.7963 451.445 17.2526C451.332 17.2128 451.199 17.173 451.066 17.1332C450.782 17.0669 450.46 17.0139 450.138 16.9741C449.949 16.9476 449.74 16.921 449.551 16.8945C443.355 15.6745 436.933 14.7064 430.358 13.8975C423.576 13.0621 416.641 12.4919 409.707 11.9482C404.27 11.5238 398.832 11.0995 393.376 10.7149C385.153 10.1314 377.063 9.22966 368.86 8.60639C356.109 7.63834 343.358 6.59072 330.399 6.17963C323.067 5.94093 315.735 5.83484 308.403 5.63593C300.294 5.41049 292.204 5.14527 284.114 4.91983C279.851 4.80048 275.57 4.73418 271.288 4.65461C266.21 4.65461 261.133 4.65461 256.055 4.64135C255.6 4.41591 254.786 4.61483 254.274 4.44243C254.217 4.41591 254.161 4.40265 254.104 4.36287C256.548 4.30983 259.011 4.2833 261.455 4.36287C261.455 4.36287 261.493 4.36287 261.512 4.36287C262.288 4.36287 263.046 4.36287 263.823 4.34961C264.013 4.2833 264.107 4.217 264.164 4.12417C264.335 3.88547 264.24 3.58047 264.979 3.36829C264.751 3.77939 264.562 4.0446 265.528 4.12417C265.699 4.13743 265.888 4.15069 266.134 4.15069C267.669 4.17722 269.223 4.09765 270.757 4.15069C270.814 4.15069 270.871 4.15069 270.947 4.15069C271.42 4.15069 271.913 4.15069 272.387 4.16395C272.406 4.16395 272.443 4.16395 272.462 4.16395C272.709 4.16395 272.955 4.16395 273.201 4.17722C273.201 4.20374 273.201 4.217 273.22 4.24352C273.22 4.25678 273.22 4.2833 273.22 4.29656C275.664 4.27004 278.108 4.27004 280.552 4.29656C284.645 4.34961 288.737 4.30983 292.829 4.30983C297.49 4.30983 302.17 4.30983 306.83 4.30983C310.828 4.33635 314.826 4.36287 318.842 4.38939C323.427 4.41591 328.031 4.4557 332.616 4.48222C332.749 4.48222 332.881 4.48222 332.995 4.48222C334.283 4.62809 335.553 4.48222 336.841 4.48222C337.371 4.60157 337.921 4.65461 338.47 4.65461C339.702 4.66787 340.952 4.50874 342.165 4.60157C342.241 4.60157 342.297 4.60157 342.373 4.61483C342.638 4.61483 342.904 4.61483 343.15 4.61483C343.226 4.61483 343.302 4.61483 343.377 4.61483C344.381 4.66787 345.386 4.70765 346.39 4.72092C346.484 4.72092 346.598 4.72092 346.693 4.72092C348.284 4.7607 349.895 4.7607 351.505 4.74744C351.979 4.74744 352.452 4.74744 352.926 4.74744C353.134 4.74744 353.362 4.77396 353.57 4.77396C353.873 4.81374 354.177 4.85353 354.48 4.88005C354.574 4.88005 354.669 4.88005 354.764 4.89331C357.227 5.05244 359.709 4.80048 362.248 5.02592C364.654 5.25136 367.155 5.38397 369.674 5.37071C369.959 5.37071 370.224 5.37071 370.508 5.37071C374.013 5.52984 377.499 5.70223 381.004 5.86136C381.364 5.88788 381.724 5.90114 382.084 5.92767C384.357 6.06028 386.631 6.19289 388.886 6.3255C389.378 6.45811 389.909 6.51115 390.477 6.45811C390.97 6.47137 391.462 6.48463 391.955 6.49789C392.618 6.55093 393.262 6.60398 393.925 6.65702C394.19 6.6305 394.55 6.61724 394.74 6.56419C394.891 6.51115 394.91 6.43159 394.588 6.27245C394.19 6.06028 393.717 5.88788 393.262 5.68897C393.262 5.68897 393.243 5.68897 393.224 5.68897C393.224 5.68897 393.224 5.67571 393.224 5.66245C393.092 5.49005 392.315 5.42375 392.732 5.18505C393.129 4.97288 393.736 5.02592 394.304 5.0657C394.986 5.38397 395.63 5.14527 396.293 5.03918C396.331 5.05244 396.369 5.07896 396.407 5.10548C397.279 5.5431 397.373 6.0868 397.714 6.60398C397.752 6.67028 397.809 6.73659 397.847 6.80289C397.942 6.82942 398.036 6.84268 398.15 6.82942C399.893 7.02833 401.693 7.02833 403.474 7.20072C405.691 7.4129 408.059 7.7179 410.446 7.49247C410.522 7.49247 410.617 7.49246 410.692 7.4792C411.28 7.89029 412.379 7.82399 413.269 7.86377C415.732 7.96986 418.138 8.10247 420.488 8.42073C420.734 8.47378 420.999 8.51356 421.264 8.54008C422.42 8.67269 423.633 8.64617 424.826 8.71248C425.432 8.76552 425.963 8.93791 426.626 8.88487C426.683 8.88487 426.721 8.88487 426.778 8.87161C428.047 9.03074 429.449 8.93791 430.661 9.20313C431.059 9.24292 431.476 9.26944 431.874 9.30922C433.863 9.48162 435.853 9.65401 437.842 9.81314C437.918 9.81314 437.994 9.8264 438.088 9.83966C439.509 9.94575 440.93 10.0518 442.351 10.1712C442.503 10.211 442.673 10.2375 442.844 10.264C444.549 10.5823 446.481 10.5292 448.262 10.7414C448.509 10.7679 448.736 10.8077 448.963 10.8475C449.418 11.0464 450.024 10.9271 450.555 10.9668C450.687 10.9934 450.801 11.0066 450.934 11.0332C452.696 11.3249 454.704 11.2586 456.409 11.6299C457.716 11.8023 459.005 12.0145 460.407 12.0675C460.653 12.0675 460.899 12.094 461.127 12.094C462.491 12.399 463.95 12.598 465.484 12.704C467.114 12.5847 468.459 12.8632 469.747 13.208C469.804 13.1947 469.842 13.1814 469.899 13.1682C469.955 13.1549 469.993 13.1284 470.031 13.1019C470.391 12.8499 469.368 12.3725 470.656 12.3195C470.808 12.3195 470.922 12.3195 471.016 12.3195C471.395 12.3593 471.32 12.5316 471.301 12.704C471.301 12.7703 471.301 12.8234 471.32 12.8764C471.339 12.8764 471.376 12.8897 471.395 12.903C471.395 12.9295 471.414 12.9427 471.433 12.9693C471.49 12.9958 471.585 13.009 471.699 13.0223C471.831 13.0753 471.964 13.1284 472.096 13.1814C473.138 13.1417 474.199 13.0886 475.241 13.0488C475.336 13.0886 475.431 13.1284 475.507 13.1814C475.658 13.2875 475.696 13.4069 475.488 13.4599C473.423 14.0301 475.279 14.0699 476.094 14.2291C476.662 14.3351 477.269 14.4014 477.875 14.4943C478.064 14.6269 478.349 14.6667 478.727 14.6401C479.694 14.8391 480.641 15.0645 481.759 15.1308C483.54 15.1573 484.62 15.8204 486.23 16.006C486.344 16.006 486.476 16.0326 486.59 16.0458C486.704 16.0723 486.836 16.0989 486.95 16.1386C488.636 16.5365 490.341 16.9343 492.028 17.3321C492.217 17.3321 492.482 17.3321 492.615 17.3056C492.634 17.3056 492.653 17.3056 492.672 17.2923C492.918 17.173 492.596 17.0934 492.425 17.0006C492.444 16.9476 492.482 16.9078 492.501 16.8547C492.577 16.7089 492.672 16.5497 492.747 16.4039C492.747 16.3906 492.766 16.3641 492.785 16.3508C493.032 16.3508 493.297 16.3641 493.543 16.3773C493.903 15.9397 493.638 15.396 494.112 14.9717C494.282 14.8258 494.547 14.6799 494.964 14.5606C495.002 14.5606 495.021 14.5473 495.059 14.5341C495.097 14.5341 495.116 14.5208 495.154 14.5075C496.65 14.8788 495.04 15.2369 495.116 15.5949C495.362 15.5949 495.608 15.5949 495.855 15.5949C495.912 15.5949 495.949 15.6215 495.987 15.6347C496.537 15.7939 496.821 16.0458 496.745 16.2978C496.537 16.9476 497.238 17.0802 498.223 17.0536C498.469 17.0536 498.734 17.0271 499 17.0139C499.398 17.2526 499.871 17.478 499.833 17.783C499.795 17.8095 499.776 17.8228 499.739 17.836C498.659 18.5521 497.901 17.7034 496.972 17.6769C496.271 17.5708 496.082 16.9608 495.987 17.0802C495.57 17.5973 494.32 17.3454 493.676 17.5443C493.6 17.5708 493.524 17.5973 493.467 17.6371C494.775 17.9554 496.101 18.2869 497.408 18.6052C498.734 18.6052 499.36 18.9367 499.814 19.3743C500.08 19.4671 500.364 19.5732 500.629 19.6661C500.951 19.7058 501.216 19.7854 501.463 19.865C501.804 19.9843 502.107 20.1302 502.429 20.2628C502.656 20.3556 502.903 20.4485 503.13 20.5413C503.395 20.6341 503.679 20.7004 504.039 20.7535C503.774 20.3822 503.793 20.0639 504.589 19.8517C505.422 20.2628 506.597 20.3556 507.772 20.4485C507.866 20.4485 507.98 20.4617 508.094 20.475C507.942 20.8596 507.942 21.2839 506.427 20.9391C505.839 20.8065 504.93 20.8993 504.532 21.2574C505.858 21.8143 506.654 22.5172 507.544 23.1935C507.544 23.2067 507.563 23.2333 507.582 23.2465C507.866 23.7505 508.17 24.2544 508.454 24.7583C508.586 25.0102 508.586 25.2887 509.174 25.4611C509.363 25.4346 509.534 25.3948 509.723 25.3683C510.102 25.3152 510.443 25.302 510.689 25.4744C510.746 25.5142 510.784 25.5407 510.822 25.5937C510.576 25.8457 510.273 26.0844 509.572 26.1772C509.022 26.5618 509.174 26.9994 509.174 27.4105C509.174 28.6172 508.586 29.7709 507.829 30.9247C507.506 31.402 507.184 31.5479 506.067 31.1633L506.199 31.296Z" fill="#66CC33" fill-opacity="0.6"/>
<path d="M338.186 0.556964C337.94 0.490659 337.712 0.477398 337.542 0.490659C337.75 0.517181 337.977 0.530442 338.186 0.556964Z" fill="#66CC33" fill-opacity="0.6"/>
<path d="M467.435 9.72031C467.435 9.72031 467.511 9.76009 467.568 9.78662C467.568 9.8264 467.568 9.87944 467.568 9.91923C467.53 9.93249 467.511 9.94575 467.492 9.95901C467.227 10.1049 467.36 10.2375 467.549 10.3834C467.549 10.3834 467.587 10.4099 467.606 10.4231C467.473 10.5425 466.981 10.5955 466.924 10.7414C466.924 10.7812 466.924 10.821 466.962 10.874C467.284 10.8873 467.625 10.9138 467.947 10.9271C469.046 11.4045 470.315 10.8475 471.49 11.0332C471.717 11.0729 471.964 10.8873 471.793 10.821C471.035 10.516 472.21 10.2375 471.831 9.94575C471.812 9.85292 471.793 9.76009 471.774 9.66727C471.149 9.61422 470.486 9.65401 469.936 9.48161C469.728 9.349 469.463 9.30922 469.084 9.33574C468.364 9.20313 467.682 9.03074 466.848 9.01748C466.583 9.20313 466.337 9.40205 466.071 9.5877C466.071 9.5877 466.052 9.60096 466.033 9.61422C466.052 9.61422 466.09 9.61422 466.109 9.61422C466.583 9.60096 467.094 9.54792 467.454 9.72031H467.435ZM470.656 10.4894C470.656 10.4894 470.618 10.4894 470.599 10.5027C470.562 10.5027 470.543 10.5027 470.505 10.5027C470.562 10.5027 470.599 10.5027 470.656 10.5027V10.4894Z" fill="#66CC33" fill-opacity="0.6"/>
<path d="M327.993 0.397827C327.235 0.424349 326.401 0.251956 325.852 0.636525C326.572 0.556959 327.557 0.96805 328.012 0.397827H327.993Z" fill="#66CC33" fill-opacity="0.6"/>
<path d="M18.3965 25.2092V25.2213H18.4133L18.3965 25.2092Z" fill="#66CC33" fill-opacity="0.6"/>
</g>
<defs>
<clipPath id="clip0_158_25">
<rect width="522" height="66" fill="white"/>
</clipPath>
</defs>
</svg>
